<svg width="250" height="160" viewBox="0 0 250 160" fill="none" xmlns="http://www.w3.org/2000/svg">
<path d="M79.0446 137.73L88.6825 159.017H93.3354L94.0031 157.392L94.828 159.017H97.8811L97.5276 146.59L97.3776 139.248L79.0446 137.73Z" fill="#FF9769"/>
<path opacity="0.3" d="M79.0446 137.73L88.6825 159.017H93.3354L94.0031 157.392L94.828 159.017H97.8811L97.5276 146.59L97.3776 139.248L79.0446 137.73Z" fill="#1A1A1A"/>
<path d="M121.235 140.012L130.637 159.017H135.29L135.954 157.528L136.783 159.017H139.836L139.479 147.64L139.329 140.919L121.235 140.012Z" fill="#FF9769"/>
<path opacity="0.3" d="M121.235 140.012L130.637 159.017H135.29L135.954 157.528L136.783 159.017H139.836L139.479 147.64L139.329 140.919L121.235 140.012Z" fill="#1A1A1A"/>
<path d="M174.709 83.9988L174.795 84.0309L175.045 84.1381C175.359 84.2955 175.653 84.491 175.92 84.7201C176.347 85.0847 176.71 85.5194 176.991 86.0057C177.361 86.6489 177.579 87.3684 177.627 88.1089C177.681 89.0152 177.453 89.916 176.973 90.6871C176.425 91.5735 175.614 92.2665 174.652 92.669C174.126 92.903 173.556 93.0239 172.979 93.0239C172.403 93.0239 171.833 92.903 171.306 92.669C170.741 92.4045 170.298 91.9346 170.067 91.3549C169.939 91.0586 169.888 90.7348 169.918 90.4135C169.948 90.0921 170.058 89.7834 170.239 89.5159C170.432 89.2598 170.678 89.0491 170.962 88.8985C171.245 88.748 171.557 88.6613 171.878 88.6446C172.5 88.6172 173.111 88.8178 173.595 89.2088C174.045 89.5723 174.403 90.0356 174.643 90.5618C174.882 91.088 174.995 91.6628 174.974 92.2405C174.938 93.2842 174.562 94.2876 173.902 95.0972C173.609 95.4642 173.256 95.7802 172.86 96.0328C172.493 96.2603 172.098 96.4392 171.685 96.5649C170.973 96.7706 170.227 96.8266 169.492 96.7291C168.94 96.6586 168.4 96.5095 167.889 96.2863C167.567 96.1483 167.259 95.9784 166.971 95.7793L166.753 95.615C166.727 95.5969 166.703 95.5753 166.682 95.5507C167.071 95.8127 167.485 96.0364 167.918 96.2185C168.425 96.4272 168.958 96.5642 169.503 96.6256C170.222 96.7092 170.951 96.646 171.646 96.4399C172.045 96.312 172.426 96.1345 172.781 95.9114C173.161 95.6633 173.498 95.3545 173.777 94.9972C174.407 94.2111 174.762 93.2403 174.788 92.2333C174.805 91.684 174.695 91.1382 174.466 90.6383C174.238 90.1385 173.897 89.6981 173.47 89.3516C173.019 88.9893 172.452 88.8016 171.874 88.8231C171.581 88.8391 171.296 88.9186 171.037 89.0561C170.778 89.1936 170.552 89.3858 170.374 89.6194C170.213 89.8623 170.114 90.1418 170.088 90.4324C170.062 90.723 170.109 91.0156 170.224 91.2835C170.438 91.822 170.85 92.2587 171.374 92.5047C171.88 92.7293 172.428 92.8454 172.981 92.8454C173.535 92.8454 174.082 92.7293 174.588 92.5047C175.518 92.1192 176.306 91.4541 176.841 90.6014C177.314 89.8564 177.542 88.9827 177.495 88.1018C177.455 87.3786 177.251 86.674 176.898 86.0414C176.634 85.5624 176.293 85.1304 175.888 84.763C175.53 84.4578 175.134 84.2009 174.709 83.9988Z" fill="#FF9769"/>
<path d="M170.106 103.257C171.506 134.842 145.028 150.604 115.054 150.604C85.0793 150.604 60.7756 130.082 60.7756 104.767C60.7756 79.4531 85.0579 58.931 115.054 58.931C145.049 58.931 168.985 77.9675 170.106 103.257Z" fill="#FF9769"/>
<path opacity="0.3" d="M111.272 70.2508C111.272 70.2508 114.882 69.0974 118.239 72.9111C121.596 76.7249 126.309 83.2061 126.309 83.2061C125.888 85.3165 124.656 86.9591 122.267 87.9375L111.272 70.2508Z" fill="#1A1A1A"/>
<path d="M79.3659 137.605C89.629 137.605 97.9489 131.23 97.9489 123.365C97.9489 115.5 89.629 109.124 79.3659 109.124C69.1028 109.124 60.7828 115.5 60.7828 123.365C60.7828 131.23 69.1028 137.605 79.3659 137.605Z" fill="#FF9769"/>
<path d="M96.6991 85.2914C96.6991 85.2914 107.59 68.3938 112.579 70.2293C117.568 72.0647 122.249 87.9375 122.249 87.9375" fill="#FF9769"/>
<path d="M84.3829 81.4206L83.8722 76.8427C83.8722 76.8427 77.0554 73.986 70.9455 72.5969C64.8357 71.2078 63.6359 72.5969 63.6359 72.5969L73.2988 86.1342L84.3829 81.4206Z" fill="#FF9769"/>
<path opacity="0.3" d="M98.9202 65.2123L102.534 67.3549C102.534 67.3549 120.031 62.7127 133.479 67.3549L128.548 63.1591C128.548 63.1591 112.247 59.6596 98.9202 65.2123Z" fill="#1A1A1A"/>
<path opacity="0.3" d="M79.3659 137.605C89.629 137.605 97.9489 131.23 97.9489 123.365C97.9489 115.5 89.629 109.124 79.3659 109.124C69.1028 109.124 60.7828 115.5 60.7828 123.365C60.7828 131.23 69.1028 137.605 79.3659 137.605Z" fill="#1A1A1A"/>
<path d="M74.6452 137.605C84.2595 137.605 92.0534 131.23 92.0534 123.365C92.0534 115.5 84.2595 109.124 74.6452 109.124C65.0309 109.124 57.2369 115.5 57.2369 123.365C57.2369 131.23 65.0309 137.605 74.6452 137.605Z" fill="#FF9769"/>
<path opacity="0.3" d="M68.6281 116.683H67.289C66.6303 116.683 66.0963 117.217 66.0963 117.876V128.853C66.0963 129.512 66.6303 130.046 67.289 130.046H68.6281C69.2868 130.046 69.8208 129.512 69.8208 128.853V117.876C69.8208 117.217 69.2868 116.683 68.6281 116.683Z" fill="#1A1A1A"/>
<path opacity="0.3" d="M78.6304 116.683H77.2913C76.6326 116.683 76.0986 117.217 76.0986 117.876V128.853C76.0986 129.512 76.6326 130.046 77.2913 130.046H78.6304C79.2891 130.046 79.8231 129.512 79.8231 128.853V117.876C79.8231 117.217 79.2891 116.683 78.6304 116.683Z" fill="#1A1A1A"/>
<path opacity="0.3" d="M83.3259 81.867C84.8935 80.985 85.7327 79.6638 85.1435 77.4819C85.1435 77.4819 77.0554 73.9931 70.9455 72.5969C64.8357 71.2007 63.6359 72.5969 63.6359 72.5969L73.2988 86.1343L83.3259 81.867Z" fill="#1A1A1A"/>
<path d="M83.8723 82.2384L82.6547 81.4206C79.0516 79.0138 68.5245 72.1363 65.8713 72.0613C62.2076 71.9541 62.2004 75.1144 62.2076 77.5569C62.2076 79.2888 63.636 94.3402 63.636 94.3402" fill="#FF9769"/>
<path d="M122.249 87.9375C122.249 87.9375 122.231 87.9054 122.206 87.834C122.181 87.7626 122.145 87.6519 122.103 87.5233L121.703 86.3271C121.346 85.2915 120.824 83.7953 120.11 81.9741C119.285 79.8377 118.331 77.7532 117.253 75.7321C116.622 74.5393 115.882 73.4073 115.043 72.3505C114.604 71.7934 114.097 71.2943 113.532 70.865C112.978 70.4005 112.27 70.1598 111.547 70.1901C110.824 70.2809 110.129 70.5243 109.508 70.9043C108.892 71.2601 108.306 71.6649 107.755 72.1148C106.712 72.9727 105.727 73.8996 104.809 74.8894C103.254 76.574 101.784 78.3354 100.406 80.1672C99.2201 81.7206 98.3024 83.024 97.6739 83.9095L96.9597 84.9451L96.7705 85.2165C96.7276 85.2736 96.7062 85.3058 96.7026 85.3022C96.7157 85.2676 96.7338 85.2352 96.7562 85.2058L96.9276 84.9237C97.0812 84.6809 97.3133 84.3238 97.6204 83.8703C98.2274 82.9597 99.1309 81.6563 100.306 80.0851C101.675 78.2422 103.139 76.471 104.691 74.7787C105.612 73.7798 106.6 72.8445 107.647 71.9791C108.208 71.5213 108.805 71.1105 109.433 70.7507C110.079 70.3646 110.799 70.1211 111.547 70.0365C111.931 69.9968 112.32 70.0507 112.679 70.1937C113.024 70.3385 113.351 70.5231 113.654 70.7436C114.232 71.1811 114.751 71.6925 115.196 72.2648C116.042 73.3307 116.786 74.4736 117.418 75.6786C118.489 77.6998 119.431 79.787 120.239 81.9277C120.953 83.7596 121.446 85.2629 121.778 86.3056C121.942 86.827 122.067 87.2341 122.135 87.5126L122.22 87.8304C122.235 87.8644 122.245 87.9006 122.249 87.9375Z" fill="#3A3A3A"/>
<path d="M128.548 63.1625C128.581 63.1799 128.611 63.2015 128.638 63.2268L128.887 63.4268L129.837 64.2231L133.308 67.1655L133.537 67.3619L133.244 67.2798C131.146 66.6872 129.013 66.2209 126.859 65.8836C124.226 65.4768 121.567 65.2596 118.903 65.2337C113.419 65.1756 107.955 65.9105 102.681 67.4155H102.656H102.634L99.8845 65.805L99.1703 65.3729L98.9846 65.2551C98.9454 65.2301 98.9239 65.2158 98.9275 65.2122L98.9954 65.2444L99.1846 65.3444L99.9238 65.7515L102.698 67.3191H102.656C104.929 66.6478 107.243 66.1229 109.583 65.7479C110.969 65.5193 112.461 65.3515 114.022 65.2158C115.582 65.0801 117.236 65.0301 118.914 65.0623C121.586 65.087 124.252 65.309 126.891 65.7265C129.052 66.0709 131.189 66.5479 133.29 67.1548L133.23 67.2691L129.798 64.2802L128.87 63.4589C128.77 63.3697 128.695 63.2982 128.63 63.2447C128.601 63.2196 128.573 63.1922 128.548 63.1625Z" fill="#3A3A3A"/>
<path d="M85.0294 111.948C84.992 111.934 84.9571 111.913 84.9258 111.888L84.6366 111.698L84.1723 111.384C83.9831 111.27 83.7546 111.149 83.5046 111.006C82.0624 110.249 80.5104 109.722 78.9052 109.445C77.798 109.258 76.6784 109.154 75.5557 109.135C74.2671 109.125 72.9798 109.219 71.7063 109.417C68.7769 109.846 65.9827 110.933 63.5324 112.595C62.9052 113.042 62.3088 113.531 61.747 114.059C61.2025 114.576 60.6976 115.134 60.2365 115.726C59.3646 116.85 58.662 118.095 58.1511 119.422C57.334 121.701 57.1756 124.164 57.694 126.528C57.9061 127.429 58.2212 128.303 58.6331 129.132C58.9572 129.75 59.3385 130.337 59.7723 130.885L60.2651 131.471L60.665 131.863L60.9114 132.11C60.9392 132.137 60.9654 132.166 60.99 132.196C60.99 132.196 60.9578 132.174 60.8971 132.124L60.64 131.892L60.2258 131.51C60.0758 131.339 59.908 131.153 59.7151 130.931C59.2674 130.387 58.8739 129.799 58.5403 129.178C58.1125 128.346 57.7852 127.466 57.5654 126.557C57.0227 124.168 57.1701 121.674 57.9904 119.365C58.2371 118.705 58.5356 118.065 58.8831 117.451C59.2384 116.809 59.6432 116.195 60.0937 115.616C60.5596 115.014 61.0706 114.448 61.622 113.923C62.1929 113.387 62.8015 112.893 63.4432 112.445C65.9155 110.761 68.7388 109.662 71.6991 109.231C72.9823 109.036 74.2793 108.947 75.5771 108.963C76.7077 108.992 77.8345 109.105 78.9481 109.302C80.5628 109.592 82.1197 110.142 83.5581 110.931C83.8081 111.077 84.0331 111.202 84.2188 111.324L84.6758 111.652L84.9544 111.859C84.9827 111.886 85.0078 111.916 85.0294 111.948Z" fill="#3A3A3A"/>
<path d="M69.7138 117.933C69.7432 118.122 69.7563 118.313 69.753 118.505C69.753 118.901 69.7923 119.426 69.8209 120.054C69.8745 121.365 69.9816 123.172 70.0316 125.175C70.0316 125.675 70.0316 126.164 70.0316 126.636C70.0395 127.095 70.0048 127.554 69.928 128.007C69.8777 128.401 69.7376 128.778 69.5184 129.109C69.2993 129.44 69.0069 129.717 68.6639 129.917C68.4235 130.038 68.1557 130.094 67.8871 130.08C67.6184 130.065 67.3581 129.981 67.132 129.835C67.0108 129.755 66.9064 129.652 66.8249 129.532C66.7956 129.492 66.7739 129.447 66.7606 129.399C66.8749 129.547 67.0138 129.674 67.1713 129.774C67.3882 129.898 67.6327 129.965 67.8823 129.969C68.1319 129.974 68.3785 129.915 68.5996 129.799C68.916 129.601 69.1839 129.334 69.3835 129.018C69.5831 128.702 69.7094 128.346 69.753 127.975C69.8219 127.532 69.8518 127.084 69.8423 126.636C69.8423 126.164 69.8423 125.679 69.8245 125.179C69.7745 123.179 69.6888 121.368 69.6673 120.058C69.6673 119.401 69.6673 118.872 69.6673 118.505C69.667 118.313 69.6826 118.122 69.7138 117.933Z" fill="#3A3A3A"/>
<path d="M79.5838 117.933C79.6158 118.122 79.6302 118.313 79.6266 118.505C79.6266 118.901 79.6659 119.426 79.6909 120.054C79.748 121.365 79.8516 123.172 79.9016 125.175C79.9016 125.675 79.9016 126.164 79.9016 126.636C79.9088 127.095 79.8754 127.554 79.8016 128.007C79.7508 128.401 79.6104 128.778 79.3913 129.109C79.1722 129.44 78.8801 129.717 78.5375 129.917C78.2964 130.038 78.0281 130.094 77.7589 130.08C77.4896 130.065 77.2288 129.981 77.002 129.835C76.8814 129.755 76.7781 129.652 76.6985 129.532C76.6674 129.492 76.6444 129.448 76.6306 129.399C76.7461 129.546 76.8848 129.673 77.0413 129.774C77.2582 129.898 77.5027 129.965 77.7523 129.969C78.0019 129.974 78.2485 129.915 78.4696 129.799C78.7872 129.602 79.056 129.335 79.2558 129.019C79.4556 128.703 79.5811 128.346 79.623 127.975C79.6937 127.532 79.7235 127.084 79.7123 126.636C79.7123 126.164 79.7123 125.679 79.6945 125.179C79.6445 123.179 79.5588 121.368 79.5373 120.058C79.5373 119.401 79.5373 118.872 79.5373 118.505C79.537 118.313 79.5526 118.122 79.5838 117.933Z" fill="#3A3A3A"/>
<path d="M91.8427 126.464C91.8282 126.549 91.803 126.632 91.7677 126.711C91.707 126.868 91.6391 127.107 91.5034 127.4C91.1485 128.233 90.7106 129.029 90.1965 129.774C89.4386 130.886 88.5516 131.904 87.554 132.806C86.9624 133.335 86.34 133.829 85.69 134.285C84.9862 134.768 84.25 135.202 83.4867 135.584C82.0162 136.337 80.4564 136.901 78.8445 137.263C77.5331 137.538 76.1958 137.671 74.8558 137.659C73.7095 137.659 72.7883 137.591 72.1491 137.545L71.417 137.488C71.3304 137.484 71.2443 137.472 71.1599 137.452C71.2455 137.446 71.3314 137.446 71.417 137.452L72.1526 137.477C72.7918 137.498 73.7167 137.541 74.8558 137.531C76.1886 137.524 77.5171 137.378 78.8195 137.095C80.4111 136.726 81.9511 136.162 83.4046 135.417C84.1591 135.037 84.8879 134.609 85.5864 134.135C86.2308 133.685 86.8484 133.199 87.4362 132.678C88.4309 131.79 89.321 130.792 90.0893 129.703C90.6085 128.969 91.0592 128.188 91.4356 127.371C91.582 127.086 91.6606 126.85 91.732 126.696C91.7641 126.617 91.801 126.539 91.8427 126.464Z" fill="#3A3A3A"/>
<path d="M69.4994 117.537C69.4255 117.412 69.3432 117.293 69.253 117.18C69.1217 117.039 68.9638 116.926 68.7885 116.847C68.6132 116.768 68.424 116.724 68.2317 116.719C67.9471 116.717 67.6653 116.775 67.4054 116.891C67.1454 117.007 66.9133 117.177 66.7248 117.39C66.5029 117.641 66.346 117.943 66.2677 118.269C66.1906 118.628 66.1558 118.995 66.1642 119.362C66.1642 120.897 66.182 122.29 66.1642 123.29C66.1642 123.765 66.1642 124.161 66.1642 124.482C66.1714 124.629 66.1606 124.777 66.132 124.922C66.105 124.777 66.0919 124.63 66.0927 124.482C66.0927 124.164 66.0677 123.768 66.0499 123.29C66.0249 122.283 65.9963 120.894 65.9856 119.362C65.9763 118.979 66.0147 118.596 66.0999 118.222C66.1848 117.869 66.3594 117.543 66.6069 117.276C66.8125 117.048 67.066 116.867 67.3493 116.748C67.6327 116.629 67.9389 116.574 68.246 116.587C68.4528 116.598 68.655 116.653 68.8395 116.747C69.0241 116.841 69.1868 116.972 69.3173 117.133C69.3845 117.222 69.4397 117.319 69.4815 117.423C69.4958 117.498 69.5065 117.533 69.4994 117.537Z" fill="white"/>
<path d="M76.0413 118.376C76.0913 118.376 76.1342 120.258 76.1342 122.579C76.1342 124.9 76.0913 126.782 76.0413 126.782C75.9913 126.782 75.9485 124.9 75.9485 122.579C75.9485 120.258 75.9878 118.376 76.0413 118.376Z" fill="white"/>
<path d="M73.0453 110.256C72.9717 110.264 72.8975 110.264 72.8239 110.256C72.6811 110.256 72.4668 110.256 72.1954 110.256C71.4274 110.281 70.6623 110.363 69.9065 110.502C67.0246 111.039 64.3597 112.398 62.2337 114.417C60.1078 116.435 58.6116 119.025 57.9261 121.876C57.8546 122.14 57.8189 122.347 57.7832 122.486C57.7701 122.559 57.751 122.631 57.7261 122.7C57.7235 122.626 57.7307 122.552 57.7475 122.479C57.7725 122.34 57.7939 122.122 57.8546 121.861C58.0081 121.102 58.2268 120.358 58.5081 119.637C59.431 117.236 60.9679 115.12 62.9649 113.499C64.962 111.879 67.3495 110.811 69.8886 110.402C70.6521 110.274 71.4249 110.21 72.199 110.209C72.474 110.209 72.6847 110.227 72.8275 110.231C72.9008 110.231 72.9739 110.239 73.0453 110.256Z" fill="white"/>
<path d="M63.7075 92.062C63.6944 92.1322 63.6728 92.2005 63.6432 92.2655C63.586 92.4155 63.5111 92.6012 63.4218 92.8297C63.3325 93.0583 63.204 93.3725 63.0647 93.726C62.9254 94.0796 62.7862 94.4759 62.6469 94.9259C62.5076 95.3758 62.3434 95.865 62.2005 96.3971C62.0577 96.9291 61.9113 97.5041 61.7649 98.1075C61.4731 99.4241 61.2538 100.756 61.1078 102.096C60.9757 103.438 60.9161 104.786 60.9293 106.135C60.9471 106.756 60.9579 107.346 61.0043 107.899C61.0507 108.452 61.0864 108.97 61.1364 109.431C61.1864 109.892 61.2507 110.317 61.3007 110.688C61.3507 111.059 61.4006 111.377 61.4506 111.638C61.5006 111.898 61.5221 112.077 61.5506 112.234C61.5649 112.303 61.5721 112.374 61.5721 112.445C61.5418 112.38 61.5213 112.312 61.5113 112.241C61.4792 112.088 61.4328 111.884 61.3792 111.648C61.3257 111.413 61.2542 111.077 61.1971 110.706C61.14 110.334 61.0578 109.917 61.0078 109.445C60.9579 108.974 60.8864 108.463 60.8507 107.91C60.815 107.356 60.7829 106.76 60.7579 106.124C60.7343 104.768 60.7892 103.411 60.9221 102.061C61.0688 100.713 61.2942 99.3752 61.597 98.054C61.7506 97.4505 61.8863 96.872 62.0541 96.3399C62.222 95.8079 62.3684 95.3151 62.5219 94.8687C62.6755 94.4224 62.8326 94.026 62.9683 93.676C63.104 93.3261 63.229 93.0297 63.3254 92.7905L63.5789 92.237C63.6157 92.1744 63.6588 92.1158 63.7075 92.062Z" fill="white"/>
<path d="M64.2394 73.4932C64.2394 73.4932 64.093 73.6861 63.8823 74.061C63.5929 74.5967 63.3915 75.1754 63.286 75.775C63.1385 76.6685 63.0656 77.5727 63.0681 78.4782C63.0396 79.5031 63.0324 80.6208 63.0681 81.817C63.1253 84.181 63.3181 86.32 63.4966 87.8626C63.5895 88.6089 63.668 89.2267 63.7252 89.6838C63.7502 89.8837 63.7716 90.0409 63.7895 90.1801C63.798 90.2393 63.798 90.2995 63.7895 90.3587C63.7661 90.304 63.7505 90.2463 63.743 90.1873C63.718 90.0551 63.6859 89.8909 63.6466 89.698C63.5681 89.2695 63.4645 88.6482 63.3574 87.8769C63.0858 85.8637 62.9249 83.8371 62.8753 81.8063C62.8467 80.6172 62.8753 79.4888 62.8967 78.4604C62.9033 77.5463 62.9905 76.6345 63.1574 75.7358C63.2752 75.1312 63.4988 74.5521 63.818 74.0253C63.9064 73.8814 64.0068 73.7453 64.118 73.6182C64.1532 73.5717 64.194 73.5298 64.2394 73.4932Z" fill="white"/>
<path d="M98.9987 62.3127C98.928 62.353 98.8524 62.3842 98.7738 62.4055L98.1096 62.6412L95.6599 63.4803C92.9692 64.3826 90.3267 65.4231 87.7432 66.5978C85.1586 67.7825 82.719 69.2611 80.4728 71.0043C79.6194 71.6827 78.9588 72.2719 78.5195 72.6933C78.291 72.9004 78.1303 73.0718 78.0089 73.179C77.953 73.2388 77.8921 73.2938 77.8268 73.3432C77.8268 73.3432 77.8768 73.2718 77.9839 73.154C78.091 73.0361 78.2481 72.8576 78.466 72.6433C79.0755 72.028 79.7181 71.4463 80.3907 70.9007C82.6238 69.1191 85.0666 67.6177 87.6647 66.4299C90.2588 65.2486 92.9202 64.2208 95.6349 63.3518C96.6741 62.9947 97.5204 62.7483 98.1025 62.5698L98.7774 62.3662C98.8494 62.3417 98.9235 62.3237 98.9987 62.3127Z" fill="white"/>
<path d="M111.429 71.1614C111.379 71.2075 111.325 71.2494 111.268 71.2864L110.793 71.622C110.376 71.9077 109.783 72.3362 109.065 72.879C108.347 73.4218 107.508 74.0967 106.605 74.8751C105.701 75.6536 104.755 76.5606 103.798 77.5498C102.841 78.5389 101.984 79.5316 101.231 80.4565C100.477 81.3814 99.8414 82.2419 99.3272 82.9883C98.813 83.7346 98.4059 84.3345 98.1345 84.7737L97.8167 85.2594C97.7849 85.32 97.744 85.3754 97.6953 85.4236C97.7207 85.3609 97.7505 85.3 97.7846 85.2415C97.8631 85.1094 97.956 84.9416 98.0738 84.7344C98.3238 84.2952 98.713 83.6632 99.2165 82.924C99.72 82.1848 100.356 81.2992 101.098 80.3601C101.841 79.4209 102.705 78.4282 103.662 77.4319C104.619 76.4356 105.591 75.5429 106.494 74.7573C107.397 73.9717 108.251 73.3289 108.994 72.7826C109.736 72.2362 110.329 71.8399 110.761 71.5756L111.254 71.2685C111.306 71.2233 111.365 71.187 111.429 71.1614Z" fill="white"/>
<path d="M166.464 96.0043C166.638 96.2873 166.78 96.5892 166.885 96.9041C167.18 97.6495 167.427 98.4128 167.625 99.1895C167.82 99.9663 167.967 100.755 168.064 101.55C168.122 101.879 168.141 102.213 168.121 102.546C168.037 102.226 167.975 101.9 167.935 101.571C167.832 100.968 167.671 100.143 167.443 99.2359C167.214 98.3289 166.96 97.5291 166.764 96.9506C166.641 96.6429 166.541 96.3266 166.464 96.0043Z" fill="white"/>
<path d="M157.919 136.945L157.744 137.077L157.219 137.434L156.362 138.038L155.812 138.42L155.173 138.834C152.635 140.515 149.992 142.031 147.26 143.372C146.392 143.797 145.474 144.215 144.517 144.651L143.039 145.279L142.275 145.601L141.489 145.904L139.879 146.515L138.193 147.097C137.625 147.3 137.04 147.479 136.447 147.658C135.854 147.836 135.258 148.04 134.64 148.197C132.075 148.922 129.473 149.507 126.845 149.95C124.025 150.446 121.175 150.754 118.314 150.871C115.454 150.999 112.589 150.909 109.744 150.604L108.715 150.504C108.358 150.468 108.037 150.411 107.697 150.368L105.698 150.082L103.752 149.725L102.795 149.547L101.859 149.332C97.4473 148.363 93.1415 146.962 89.0037 145.151C86.2113 143.948 83.5238 142.515 80.9692 140.866C80.0515 140.305 79.3944 139.794 78.9302 139.459L78.4088 139.077L78.2374 138.945C78.2374 138.945 78.3017 138.98 78.4195 139.062L78.9516 139.419C79.423 139.734 80.0872 140.244 81.0085 140.798C83.5728 142.426 86.2645 143.845 89.0573 145.04C93.1908 146.832 97.4891 148.217 101.891 149.175L102.827 149.386L103.78 149.564L105.723 149.922L107.719 150.204C108.055 150.246 108.39 150.304 108.733 150.339L109.761 150.436C112.599 150.737 115.456 150.825 118.307 150.7C121.159 150.582 124 150.278 126.813 149.789C129.434 149.349 132.031 148.769 134.59 148.05C135.208 147.893 135.801 147.693 136.393 147.515C136.986 147.336 137.572 147.158 138.14 146.958L139.821 146.383L141.436 145.769L142.221 145.472L142.982 145.154L144.46 144.533C145.417 144.097 146.335 143.683 147.199 143.265C149.933 141.942 152.583 140.451 155.134 138.802L155.776 138.395L156.33 138.02L157.198 137.43L157.733 137.073C157.855 136.973 157.919 136.945 157.919 136.945Z" fill="#3A3A3A"/>
<path d="M142.539 140.759L149.716 159.113H154.623L155.691 157.513L156.948 159.113H158.683L159.326 130.028L142.539 140.759Z" fill="#FF9769"/>
<path d="M97.4561 143.344L103.527 159.113H109.097L110.24 157.299L111.34 159.127H112.725C112.725 159.127 113.332 141.337 112.725 140.83C112.118 140.323 97.4561 143.344 97.4561 143.344Z" fill="#FF9769"/>
<path d="M168.317 108.099C168.321 108.133 168.321 108.168 168.317 108.202C168.317 108.281 168.317 108.385 168.292 108.51C168.269 108.793 168.233 109.186 168.185 109.688C168.157 109.945 168.128 110.227 168.1 110.538C168.071 110.849 167.996 111.181 167.939 111.541C167.81 112.255 167.707 113.088 167.475 113.977C167.368 114.423 167.26 114.891 167.146 115.38C167.032 115.869 166.857 116.362 166.707 116.88C166.425 117.926 165.993 119.001 165.582 120.14C163.642 125.061 160.799 129.576 157.201 133.452C156.355 134.324 155.566 135.166 154.748 135.877C154.344 136.234 153.973 136.591 153.584 136.92L152.459 137.823C151.745 138.416 151.059 138.87 150.466 139.294C150.166 139.502 149.892 139.702 149.631 139.873L148.899 140.316L147.885 140.926L147.62 141.08C147.591 141.098 147.56 141.114 147.528 141.126C147.528 141.126 147.553 141.101 147.61 141.062L147.867 140.894L148.86 140.255L149.574 139.798C149.831 139.627 150.102 139.419 150.399 139.209C150.984 138.777 151.677 138.32 152.37 137.72L153.484 136.809C153.87 136.491 154.237 136.123 154.637 135.763C155.448 135.049 156.226 134.206 157.069 133.335C160.633 129.46 163.461 124.968 165.414 120.079C165.836 118.944 166.264 117.873 166.553 116.837C166.707 116.319 166.878 115.826 167 115.344L167.357 113.948C167.596 113.063 167.714 112.238 167.846 111.523C167.907 111.166 167.978 110.834 168.021 110.524C168.064 110.213 168.092 109.934 168.121 109.677C168.185 109.181 168.232 108.788 168.267 108.506L168.31 108.202C168.308 108.168 168.311 108.133 168.317 108.099Z" fill="white"/>
<g opacity="0.2">
<path opacity="0.2" d="M160.554 92.6154C158.922 88.5803 155.373 84.7594 151.27 83.1025C150.488 82.7927 149.644 82.6732 148.807 82.7539C147.97 82.8345 147.164 83.1131 146.456 83.5666C145.748 84.02 145.158 84.6354 144.735 85.3619C144.311 86.0883 144.067 86.9051 144.021 87.7447C144.021 87.7733 144.021 87.7982 144.021 87.8232C143.892 90.4086 144.907 92.9189 146.164 95.19C147.421 97.4612 148.902 99.6073 149.87 102.007C151.464 106.012 151.515 110.465 150.013 114.505C149.056 117.048 147.467 119.754 148.906 122.29C149.849 123.95 151.745 124.768 153.648 124.597C157.294 124.264 159.187 120.972 160.915 117.983C162.304 115.576 163.447 111.834 163.515 109.009C163.703 103.397 162.694 97.8079 160.554 92.6154Z" fill="white"/>
</g>
<path d="M78.1018 101.339C78.2092 101.879 78.14 102.44 77.9045 102.938C77.669 103.436 77.2796 103.845 76.7938 104.104C76.308 104.364 75.7516 104.46 75.2068 104.38C74.662 104.299 74.1576 104.045 73.7681 103.655C73.3786 103.266 73.1247 102.761 73.0439 102.217C72.9631 101.672 73.0596 101.115 73.3192 100.63C73.5788 100.144 73.9878 99.7545 74.4857 99.5189C74.9836 99.2834 75.544 99.2142 76.0842 99.3216C76.5822 99.4211 77.0395 99.6658 77.3986 100.025C77.7576 100.384 78.0023 100.841 78.1018 101.339Z" fill="#3A3A3A"/>
<path d="M105.891 101.339C105.998 101.88 105.929 102.44 105.693 102.938C105.457 103.436 105.067 103.845 104.581 104.104C104.095 104.364 103.539 104.46 102.994 104.378C102.449 104.297 101.944 104.043 101.555 103.653C101.166 103.263 100.913 102.758 100.832 102.213C100.752 101.668 100.849 101.112 101.109 100.626C101.37 100.141 101.779 99.7516 102.277 99.5167C102.776 99.2818 103.336 99.2134 103.877 99.3216C104.374 99.4213 104.831 99.6661 105.189 100.025C105.548 100.384 105.792 100.842 105.891 101.339Z" fill="#3A3A3A"/>
<path d="M159.712 80.3672C159.648 80.3068 159.588 80.2424 159.533 80.1744C159.412 80.028 159.254 79.8173 159.054 79.5995C158.855 79.3816 158.597 79.0388 158.294 78.6925C157.99 78.3461 157.655 77.939 157.255 77.5176C156.855 77.0963 156.433 76.6213 155.951 76.1357C155.469 75.65 154.948 75.143 154.394 74.6073C153.273 73.5646 151.998 72.4648 150.599 71.3685C149.199 70.2722 147.799 69.3367 146.499 68.5118C145.846 68.1118 145.228 67.7262 144.628 67.3976C144.028 67.0691 143.478 66.7549 142.96 66.4835C142.443 66.2121 141.975 65.9836 141.564 65.7693C141.153 65.555 140.789 65.3944 140.493 65.2622L139.814 64.9444C139.735 64.9086 139.657 64.868 139.582 64.823C139.667 64.8431 139.75 64.8718 139.829 64.9087L140.525 65.1944C140.825 65.3194 141.189 65.4765 141.596 65.6765C142.003 65.8764 142.496 66.0871 143.025 66.3621C143.553 66.637 144.114 66.9156 144.707 67.2548C145.299 67.594 145.935 67.969 146.596 68.3582C147.903 69.176 149.306 70.1437 150.716 71.215C152.127 72.2862 153.398 73.4218 154.516 74.4788C155.069 75.0144 155.587 75.5215 156.066 76.0214C156.544 76.5213 156.969 76.9856 157.355 77.4248C157.74 77.864 158.069 78.2639 158.376 78.6175C158.683 78.971 158.919 79.2852 159.115 79.5459L159.569 80.1422C159.622 80.2134 159.67 80.2886 159.712 80.3672Z" fill="white"/>
<path d="M132.715 68.8296C132.621 68.8076 132.528 68.7802 132.437 68.7474L131.651 68.476C131.316 68.3546 130.898 68.2082 130.409 68.0654C129.919 67.9226 129.37 67.7297 128.745 67.5797L127.766 67.3191C127.427 67.2334 127.07 67.1619 126.695 67.0798C125.959 66.9013 125.163 66.7727 124.324 66.6263C120.68 66.0376 116.975 65.9307 113.304 66.3085C112.461 66.4085 111.658 66.4906 110.915 66.6263C110.54 66.687 110.179 66.737 109.844 66.8049L108.855 67.0048C108.223 67.1227 107.662 67.2798 107.162 67.3976C106.662 67.5155 106.241 67.6333 105.898 67.7369L105.098 67.9583C105.006 67.9896 104.912 68.0123 104.816 68.0261C104.904 67.9854 104.995 67.9508 105.087 67.9226L105.876 67.6654C106.234 67.5512 106.641 67.4226 107.137 67.3084C107.633 67.1941 108.208 67.012 108.826 66.887L109.815 66.6727C110.172 66.6013 110.529 66.5513 110.886 66.4835C111.633 66.3406 112.436 66.2549 113.283 66.1478C116.97 65.7506 120.694 65.8575 124.352 66.4656C125.192 66.6192 125.991 66.7549 126.727 66.9406C127.084 67.0263 127.441 67.0977 127.798 67.1905L128.773 67.4619C129.398 67.6226 129.948 67.819 130.437 67.9761C130.926 68.1332 131.337 68.2868 131.673 68.4189L132.448 68.7224C132.54 68.7505 132.629 68.7864 132.715 68.8296Z" fill="white"/>
<path d="M178.616 65.0409C177.984 66.5965 176.904 67.9296 175.514 68.8713C174.124 69.813 172.485 70.321 170.806 70.3309C169.127 70.3409 167.483 69.8524 166.081 68.9273C164.68 68.0022 163.585 66.6821 162.934 65.1341C162.283 63.5861 162.107 61.8798 162.426 60.2314C162.746 58.5829 163.548 57.0664 164.73 55.8738C165.912 54.6812 167.421 53.8662 169.067 53.5319C170.712 53.1976 172.42 53.3592 173.974 53.9961C176.053 54.8463 177.71 56.4871 178.58 58.558C179.451 60.6288 179.463 62.9605 178.616 65.0409Z" fill="#FF9769"/>
<path d="M176.745 64.2767C176.264 65.4626 175.441 66.4791 174.382 67.1974C173.323 67.9157 172.074 68.3035 170.794 68.3117C169.514 68.32 168.261 67.9482 167.192 67.2436C166.124 66.539 165.289 65.5332 164.792 64.3536C164.296 63.1739 164.16 61.8735 164.403 60.6169C164.646 59.3603 165.257 58.2041 166.157 57.2946C167.058 56.3852 168.208 55.7634 169.462 55.508C170.716 55.2527 172.018 55.3752 173.203 55.86C174.788 56.507 176.052 57.7569 176.716 59.3352C177.38 60.9134 177.391 62.6908 176.745 64.2767Z" fill="#FF9769"/>
<path d="M176.745 64.2767C176.752 64.2428 176.762 64.2095 176.773 64.1767C176.798 64.1053 176.831 64.0089 176.87 63.8839C176.891 63.8196 176.916 63.7482 176.941 63.6696C176.966 63.5911 176.98 63.5018 177.005 63.4054C177.062 63.1857 177.103 62.9627 177.13 62.7376C177.216 62.1222 177.208 61.4976 177.109 60.8843C176.88 59.413 176.148 58.0667 175.037 57.0755C173.926 56.0842 172.505 55.5095 171.017 55.4494C170.713 55.4382 170.409 55.4465 170.106 55.4744C169.953 55.4744 169.799 55.5208 169.646 55.5422C169.491 55.5636 169.338 55.597 169.189 55.6422C168.881 55.7193 168.579 55.8171 168.285 55.935C167.988 56.0643 167.7 56.2147 167.425 56.385C166.853 56.7274 166.341 57.1618 165.911 57.6705C165.467 58.1921 165.106 58.7786 164.839 59.4095C164.588 60.0471 164.434 60.7188 164.382 61.4021C164.336 62.0658 164.398 62.7327 164.564 63.3768C164.642 63.6908 164.742 63.9988 164.864 64.2981C164.991 64.5898 165.138 64.8726 165.304 65.1444C165.463 65.4119 165.642 65.6673 165.839 65.9086C166.035 66.1402 166.246 66.3585 166.471 66.5621C167.32 67.3297 168.358 67.8583 169.478 68.094C170.453 68.2991 171.462 68.2722 172.424 68.0154C173.22 67.8029 173.968 67.4392 174.627 66.9442C175.129 66.5775 175.572 66.1368 175.941 65.6372C176.08 65.4582 176.207 65.2696 176.32 65.073C176.37 64.9909 176.42 64.9123 176.459 64.8409C176.498 64.7695 176.527 64.698 176.559 64.6373L176.695 64.3624L176.745 64.2695C176.737 64.3041 176.725 64.3377 176.709 64.3695C176.677 64.4374 176.634 64.5302 176.584 64.6481L176.491 64.8552C176.452 64.9302 176.402 65.0087 176.352 65.0944C176.246 65.2939 176.127 65.4859 175.995 65.6693C175.629 66.1786 175.187 66.6289 174.684 67.0049C173.478 67.9202 171.99 68.3855 170.478 68.3203C168.965 68.2551 167.523 67.6635 166.4 66.6478C166.168 66.4403 165.951 66.2172 165.75 65.98C165.55 65.7349 165.367 65.476 165.204 65.2051C165.035 64.9286 164.884 64.6411 164.754 64.3445C164.629 64.038 164.526 63.723 164.447 63.4018C164.274 62.7441 164.21 62.0626 164.257 61.3842C164.347 59.9778 164.896 58.6396 165.818 57.5741C166.259 57.0574 166.781 56.6159 167.364 56.2671C167.648 56.0965 167.943 55.9438 168.246 55.81C168.544 55.6945 168.849 55.6002 169.16 55.5279C169.314 55.4832 169.47 55.4486 169.628 55.4244C169.785 55.403 169.942 55.3744 170.096 55.3565C170.404 55.3281 170.715 55.3209 171.024 55.3351C172.189 55.386 173.319 55.7459 174.299 56.3778C175.071 56.8823 175.727 57.5448 176.225 58.3216C176.722 59.0984 177.049 59.9719 177.184 60.8843C177.28 61.5044 177.28 62.1354 177.184 62.7555C177.155 62.9823 177.11 63.2067 177.048 63.4268C177.023 63.5232 177.002 63.6125 176.977 63.6911C176.952 63.7696 176.923 63.841 176.898 63.9053C176.852 64.0267 176.816 64.1196 176.791 64.191C176.766 64.2624 176.748 64.2803 176.745 64.2767Z" fill="#3A3A3A"/>
<g opacity="0.3">
<path opacity="0.3" d="M176.659 64.3232C176.679 64.0572 176.725 63.794 176.798 63.5376C176.928 62.8403 176.949 62.1274 176.863 61.4236C176.798 60.9424 176.678 60.4704 176.506 60.0166C176.316 59.4969 176.06 59.0037 175.745 58.549C175.574 58.3059 175.386 58.0745 175.184 57.8562C174.974 57.6287 174.746 57.4185 174.502 57.2277C174.251 57.0289 173.985 56.8498 173.706 56.6921C173.418 56.53 173.119 56.3904 172.81 56.2743C172.5 56.1604 172.183 56.0697 171.86 56.0029C171.559 55.9396 171.253 55.9002 170.946 55.8851C170.338 55.8584 169.729 55.9209 169.139 56.0708C168.13 56.3282 167.198 56.827 166.425 57.5241C165.898 57.9981 165.447 58.5511 165.089 59.1632C164.832 59.5988 164.732 59.8595 164.679 59.8452C164.707 59.5744 164.79 59.3121 164.922 59.0739C165.228 58.3987 165.656 57.786 166.186 57.267C166.554 56.9069 166.962 56.5906 167.403 56.3243C167.911 56.0213 168.458 55.7883 169.028 55.6315C169.336 55.545 169.65 55.4829 169.967 55.4459C170.299 55.4033 170.633 55.3878 170.967 55.3994C171.312 55.4125 171.656 55.4519 171.996 55.5173C172.345 55.5861 172.689 55.6829 173.024 55.8065C173.356 55.933 173.679 56.0846 173.988 56.26C174.289 56.4303 174.574 56.6263 174.842 56.8457C175.097 57.0553 175.336 57.2845 175.556 57.5313C175.771 57.7678 175.966 58.0209 176.141 58.2883C176.76 59.2104 177.129 60.2771 177.213 61.3843C177.271 62.1227 177.195 62.8657 176.988 63.5768C176.932 63.8461 176.82 64.1005 176.659 64.3232Z" fill="#1A1A1A"/>
</g>
<g opacity="0.3">
<path opacity="0.3" d="M169.978 65.6765L169.567 66.7263L168.632 66.3692L169.032 65.348C168.21 64.9951 167.503 64.4185 166.993 63.6839L167.957 62.7448C168.351 63.3231 168.889 63.7894 169.517 64.0981L170.128 62.5376C169.189 61.877 168.164 61.0736 168.699 59.7345C169.089 58.7418 170.146 58.174 171.688 58.5846L172.099 57.5455L173.035 57.9026L172.635 58.9239C173.29 59.2237 173.864 59.6754 174.309 60.2415L173.374 61.2414C173.036 60.8112 172.615 60.454 172.135 60.1916L171.51 61.7842C172.452 62.4341 173.459 63.2125 172.938 64.5481C172.56 65.5265 171.517 66.0764 169.978 65.6765ZM170.667 61.17L171.188 59.8416C170.646 59.7595 170.342 59.9523 170.221 60.263C170.099 60.5736 170.306 60.8843 170.667 61.17ZM171.381 64.0589C171.51 63.7303 171.306 63.4482 170.96 63.1483L170.463 64.4552C170.971 64.5195 171.274 64.3588 171.392 64.0589H171.381Z" fill="#1A1A1A"/>
</g>
<path d="M158.172 48.054C157.54 49.6092 156.46 50.9417 155.069 51.8828C153.679 52.824 152.041 53.3314 150.362 53.341C148.683 53.3505 147.039 52.8618 145.638 51.9365C144.237 51.0112 143.142 49.6911 142.491 48.1432C141.841 46.5953 141.664 44.8893 141.984 43.241C142.304 41.5928 143.105 40.0765 144.287 38.884C145.469 37.6915 146.978 36.8765 148.624 36.5421C150.269 36.2077 151.977 36.369 153.53 37.0056C154.56 37.4262 155.498 38.0456 156.289 38.8285C157.08 39.6114 157.708 40.5424 158.14 41.5683C158.571 42.5943 158.795 43.6951 158.801 44.8079C158.807 45.9207 158.593 47.0237 158.172 48.054Z" fill="#FF9769"/>
<path d="M156.305 47.2899C155.823 48.4754 155 49.4912 153.94 50.2087C152.88 50.9262 151.632 51.3132 150.352 51.3206C149.072 51.3281 147.819 50.9556 146.751 50.2505C145.683 49.5453 144.848 48.5392 144.352 47.3594C143.857 46.1796 143.722 44.8792 143.966 43.6228C144.209 42.3665 144.82 41.2106 145.721 40.3016C146.622 39.3926 147.772 38.7714 149.026 38.5165C150.28 38.2615 151.582 38.3845 152.766 38.8697C153.551 39.1899 154.266 39.6619 154.869 40.2584C155.472 40.855 155.951 41.5645 156.28 42.3465C156.609 43.1285 156.78 43.9675 156.784 44.8157C156.789 45.664 156.626 46.5047 156.305 47.2899Z" fill="#FF9769"/>
<path d="M156.305 47.2898C156.313 47.256 156.322 47.2226 156.333 47.1898L156.43 46.897C156.451 46.8327 156.476 46.7613 156.501 46.6828C156.526 46.6042 156.541 46.5114 156.566 46.4185C156.621 46.1988 156.663 45.9758 156.691 45.7508C156.777 45.1355 156.77 44.5105 156.669 43.8974C156.531 42.9976 156.205 42.137 155.712 41.372C155.218 40.6071 154.568 39.9551 153.805 39.4588C152.576 38.683 151.125 38.3352 149.677 38.4697C149.524 38.4697 149.374 38.5161 149.22 38.5411C149.065 38.5626 148.911 38.5948 148.76 38.6375C148.452 38.7174 148.151 38.8164 147.856 38.9339C147.56 39.0634 147.272 39.2125 146.995 39.3802C146.424 39.7216 145.912 40.1547 145.481 40.6622C144.578 41.7054 144.041 43.0163 143.953 44.3938C143.907 45.0587 143.969 45.7267 144.135 46.3721C144.213 46.686 144.313 46.9938 144.435 47.2934C144.562 47.5851 144.709 47.8679 144.874 48.1397C145.035 48.4052 145.214 48.6594 145.41 48.9003C145.607 49.1322 145.818 49.3516 146.042 49.5574C146.891 50.325 147.929 50.8536 149.049 51.0893C149.939 51.2714 150.857 51.2641 151.745 51.0678C152.632 50.8715 153.468 50.4907 154.198 49.9502C154.699 49.5826 155.142 49.142 155.512 48.6432C155.65 48.4636 155.777 48.2751 155.891 48.079C155.941 47.9933 155.991 47.9183 156.03 47.8469L156.13 47.6433L156.266 47.3684C156.298 47.3041 156.316 47.2755 156.316 47.2755C156.307 47.3087 156.295 47.3409 156.28 47.372L156.155 47.6541L156.062 47.8612C156.023 47.9362 155.973 48.0147 155.923 48.1004C155.819 48.3013 155.7 48.4936 155.566 48.6753C155.199 49.1846 154.757 49.6349 154.255 50.0109C153.518 50.5663 152.672 50.9594 151.772 51.1643C150.872 51.3693 149.939 51.3814 149.034 51.2C147.894 50.9647 146.836 50.4298 145.971 49.6502C145.74 49.4419 145.523 49.2189 145.321 48.9824C145.121 48.7367 144.939 48.4779 144.774 48.2075C144.605 47.9298 144.455 47.6411 144.324 47.3434C144.2 47.0379 144.098 46.7241 144.017 46.4042C143.846 45.7462 143.783 45.065 143.828 44.3867C143.88 43.6884 144.038 43.0021 144.296 42.3512C144.568 41.7046 144.937 41.1027 145.389 40.5658C145.83 40.0488 146.352 39.6063 146.935 39.2553C147.492 38.9092 148.101 38.6549 148.738 38.5018C148.892 38.4583 149.048 38.4249 149.206 38.4018C149.363 38.3804 149.52 38.3482 149.674 38.334C149.982 38.3055 150.292 38.2984 150.602 38.3125C151.767 38.3617 152.898 38.7218 153.877 39.3552C154.65 39.8584 155.308 40.5204 155.806 41.2974C156.304 42.0745 156.631 42.9486 156.766 43.8617C156.863 44.4817 156.863 45.113 156.766 45.7329C156.737 45.9586 156.692 46.1819 156.63 46.4007C156.605 46.4971 156.583 46.5864 156.558 46.6685L156.48 46.8792C156.432 47.0006 156.397 47.097 156.373 47.1684C156.357 47.2122 156.334 47.2532 156.305 47.2898Z" fill="#3A3A3A"/>
<g opacity="0.3">
<path opacity="0.3" d="M156.23 47.3327C156.25 47.068 156.297 46.806 156.369 46.5507C156.5 45.8536 156.522 45.1404 156.434 44.4367C156.306 43.4032 155.929 42.4164 155.334 41.5621C155.164 41.3176 154.977 41.0861 154.773 40.8693C154.563 40.6418 154.335 40.4316 154.091 40.2408C153.84 40.04 153.574 39.8597 153.295 39.7016C153.006 39.5417 152.706 39.4021 152.398 39.2838C152.089 39.1711 151.771 39.0815 151.449 39.016C151.134 38.9524 150.815 38.913 150.495 38.8982C150.185 38.8855 149.875 38.8962 149.567 38.9303C149.27 38.9603 148.977 39.0128 148.688 39.0874C148.152 39.2227 147.636 39.4267 147.153 39.6945C146.73 39.9316 146.335 40.2142 145.974 40.5372C145.448 41.0133 144.997 41.5673 144.639 42.1798C144.526 42.42 144.389 42.6484 144.232 42.8619C144.255 42.5905 144.336 42.3274 144.471 42.0906C144.777 41.4153 145.206 40.8027 145.735 40.2837C146.761 39.2744 148.092 38.6328 149.52 38.459C149.852 38.4194 150.186 38.4051 150.52 38.4161C150.866 38.4273 151.209 38.4667 151.548 38.5339C151.898 38.6028 152.242 38.6995 152.577 38.8232C152.909 38.9496 153.232 39.1012 153.541 39.2767C153.841 39.447 154.126 39.6417 154.395 39.8588C154.902 40.2669 155.346 40.7482 155.712 41.2871C156.038 41.7804 156.298 42.3148 156.484 42.8762C156.643 43.3649 156.743 43.8707 156.783 44.3831C156.844 45.1227 156.768 45.8672 156.558 46.5792C156.507 46.8517 156.394 47.1092 156.23 47.3327Z" fill="#1A1A1A"/>
</g>
<g opacity="0.3">
<path opacity="0.3" d="M149.52 48.6896L149.11 49.7359L148.174 49.3788L148.574 48.3611C147.753 48.007 147.046 47.4307 146.535 46.697L147.499 45.7543C147.889 46.342 148.425 46.8173 149.056 47.1327L149.667 45.5686C148.727 44.908 147.703 44.1081 148.238 42.769C148.627 41.7763 149.684 41.2085 151.227 41.6192L151.638 40.58L152.573 40.9371L152.177 41.9584C152.832 42.257 153.406 42.7075 153.852 43.2725L152.934 44.2402C152.593 43.8126 152.171 43.457 151.691 43.1939L151.066 44.783C152.009 45.4365 153.016 46.2292 152.495 47.5505C152.116 48.5218 151.074 49.1002 149.52 48.6896ZM150.234 44.1831L150.756 42.8547C150.213 42.7726 149.909 42.9654 149.788 43.2761C149.667 43.5867 149.877 43.8903 150.234 44.1831ZM150.949 47.072C151.077 46.7434 150.874 46.4578 150.527 46.1614L150.02 47.4505C150.527 47.5326 150.831 47.3719 150.949 47.072Z" fill="#1A1A1A"/>
</g>
<path d="M127.109 40.8871C127.336 43.5925 126.756 46.3045 125.441 48.6796C124.126 51.0548 122.135 52.9862 119.722 54.2294C117.308 55.4725 114.58 55.9714 111.883 55.6628C109.185 55.3543 106.64 54.2522 104.57 52.4961C102.499 50.7401 100.996 48.4091 100.252 45.7983C99.5069 43.1875 99.5537 40.4145 100.386 37.8303C101.219 35.2462 102.799 32.9672 104.928 31.282C107.056 29.5968 109.637 28.5813 112.343 28.3639C114.135 28.2163 115.939 28.4231 117.651 28.9726C119.363 29.5221 120.949 30.4035 122.321 31.5665C123.692 32.7294 124.821 34.1511 125.642 35.7504C126.464 37.3497 126.962 39.0952 127.109 40.8871Z" fill="#FF9769"/>
<path d="M123.856 41.1443C124.029 43.2058 123.587 45.2724 122.585 47.0824C121.584 48.8925 120.067 50.3645 118.228 51.3121C116.389 52.2598 114.31 52.6403 112.255 52.4056C110.2 52.171 108.26 51.3316 106.682 49.9939C105.104 48.6561 103.958 46.8801 103.39 44.8909C102.822 42.9016 102.857 40.7885 103.491 38.8192C104.125 36.8499 105.329 35.1129 106.95 33.8283C108.572 32.5436 110.538 31.7691 112.6 31.6028C113.966 31.4898 115.34 31.6471 116.645 32.0655C117.95 32.4839 119.16 33.1554 120.205 34.0415C121.25 34.9275 122.111 36.0109 122.737 37.2296C123.364 38.4484 123.744 39.7786 123.856 41.1443Z" fill="#FF9769"/>
<path d="M123.856 41.1443C123.838 41.0911 123.826 41.036 123.82 40.98C123.804 40.8586 123.779 40.6944 123.745 40.4872C123.745 40.3801 123.713 40.2587 123.692 40.1302C123.67 40.0016 123.628 39.8588 123.592 39.7052C123.515 39.3413 123.412 38.9833 123.285 38.6339C122.96 37.6849 122.495 36.7904 121.903 35.9807C121.045 34.7873 119.945 33.7886 118.674 33.0501C117.403 32.3116 115.991 31.8501 114.529 31.6956C112.688 31.5094 110.831 31.815 109.147 32.5812C108.7 32.7902 108.267 33.0288 107.851 33.2954C107.644 33.4311 107.448 33.5847 107.241 33.7275C107.032 33.8718 106.835 34.0318 106.651 34.206C106.266 34.5395 105.902 34.8974 105.562 35.2773C105.229 35.6799 104.924 36.1047 104.648 36.5485C104.076 37.4583 103.654 38.4542 103.398 39.4981C103.143 40.5733 103.051 41.6808 103.127 42.7833C103.225 43.8888 103.493 44.9727 103.92 45.9972C104.335 46.9887 104.911 47.9055 105.623 48.7111C105.966 49.1066 106.336 49.4777 106.73 49.8216C107.126 50.1477 107.544 50.4471 107.98 50.7179C108.405 50.9881 108.849 51.2268 109.308 51.4321C109.761 51.6246 110.226 51.7856 110.701 51.9142C113.019 52.5509 115.486 52.3653 117.682 51.3888C119.879 50.4123 121.669 48.7052 122.749 46.5578C123.207 45.6593 123.523 44.6958 123.688 43.7011C123.761 43.348 123.806 42.9898 123.824 42.6298C123.824 42.4727 123.853 42.3263 123.856 42.1941C123.86 42.062 123.856 41.937 123.856 41.8371C123.856 41.6264 123.856 41.4621 123.856 41.3407C123.851 41.2837 123.851 41.2263 123.856 41.1693C123.86 41.2252 123.86 41.2812 123.856 41.3371C123.856 41.4621 123.856 41.6264 123.881 41.8335C123.881 41.9442 123.881 42.0656 123.899 42.1906C123.917 42.3156 123.899 42.4727 123.874 42.6334C123.863 43.0011 123.825 43.3676 123.76 43.7296C123.605 44.7304 123.297 45.7012 122.846 46.6078C122.19 47.9467 121.257 49.1308 120.109 50.0814C118.961 51.032 117.623 51.7274 116.186 52.1213C113.871 52.7364 111.418 52.5656 109.212 51.6356C108.743 51.4295 108.29 51.1909 107.855 50.9215C106.944 50.3767 106.13 49.6854 105.444 48.8753C104.72 48.0517 104.131 47.1174 103.702 46.1079C102.802 44.0089 102.621 41.6712 103.188 39.4588C103.446 38.3922 103.878 37.3753 104.466 36.4485C104.747 35.9949 105.059 35.5617 105.402 35.1523C105.748 34.7598 106.12 34.3911 106.516 34.0489C106.703 33.8723 106.904 33.7099 107.116 33.5632C107.326 33.4168 107.526 33.2597 107.741 33.124C108.164 32.854 108.607 32.6153 109.065 32.4098C110.781 31.6327 112.674 31.3281 114.547 31.5278C116.029 31.6872 117.461 32.1603 118.747 32.9158C120.032 33.6712 121.142 34.6917 122.003 35.9093C122.593 36.7322 123.052 37.6417 123.363 38.6054C123.488 38.9542 123.585 39.3124 123.653 39.6766C123.688 39.8302 123.724 39.9766 123.749 40.1087C123.774 40.2409 123.778 40.3623 123.788 40.4658C123.813 40.6729 123.831 40.8229 123.845 40.9586C123.855 41.02 123.858 41.0822 123.856 41.1443Z" fill="#3A3A3A"/>
<g opacity="0.3">
<path opacity="0.3" d="M123.781 41.2622C123.72 41.2622 123.638 40.8158 123.424 40.0302C123.102 38.9319 122.614 37.8891 121.978 36.9378C121.537 36.2901 121.028 35.6915 120.46 35.1523C119.805 34.5445 119.075 34.0226 118.289 33.599C117.423 33.1347 116.494 32.798 115.532 32.5991C115.025 32.496 114.51 32.4316 113.993 32.4063C113.46 32.3851 112.927 32.403 112.397 32.4599C111.868 32.5209 111.344 32.6212 110.829 32.7598C110.33 32.9011 109.842 33.0777 109.369 33.2883C108.911 33.4914 108.471 33.7302 108.051 34.0025C107.646 34.2607 107.262 34.5496 106.901 34.8667C106.222 35.4516 105.621 36.1226 105.116 36.8628C104.684 37.5135 104.325 38.2092 104.044 38.9375C103.638 40.0065 103.397 41.1312 103.33 42.2727C103.28 43.0869 103.302 43.5476 103.237 43.5547C103.173 43.5618 103.066 43.1083 103.02 42.2692C102.972 41.0718 103.145 39.8758 103.53 38.7411C104.101 37.0417 105.099 35.5179 106.43 34.3167C106.811 33.9674 107.22 33.6486 107.651 33.3633C108.099 33.0621 108.571 32.797 109.062 32.5706C109.569 32.3342 110.094 32.1395 110.633 31.9885C111.187 31.8371 111.751 31.7261 112.322 31.6564C112.895 31.5972 113.471 31.5804 114.047 31.6064C114.605 31.6361 115.16 31.7102 115.707 31.8278C116.234 31.9392 116.751 32.0932 117.253 32.2885C117.738 32.471 118.207 32.6919 118.657 32.9491C120.222 33.8236 121.534 35.0898 122.463 36.6236C123.089 37.644 123.521 38.771 123.738 39.9481C123.852 40.7908 123.827 41.2443 123.781 41.2622Z" fill="#1A1A1A"/>
</g>
<g opacity="0.3">
<path opacity="0.3" d="M115.111 48.0897L115.286 49.9002L113.664 50.0502L113.5 48.2897C111.886 48.3468 110.286 47.9898 109.347 47.3791L110.061 45.3223C111.051 45.8844 112.17 46.1785 113.307 46.1757L113.054 43.4761C111.215 43.2083 109.151 42.8012 108.933 40.4908C108.769 38.7768 109.876 37.1913 112.404 36.6592L112.236 34.8738L113.854 34.7202L114.022 36.4843C115.185 36.4385 116.343 36.6699 117.4 37.1592L116.778 39.2232C115.975 38.852 115.106 38.6456 114.222 38.6161L114.482 41.3621C116.321 41.6121 118.353 42.0228 118.567 44.301C118.717 45.9722 117.625 47.5434 115.111 48.0897ZM112.818 41.1015L112.597 38.8054C111.758 39.0803 111.465 39.5838 111.525 40.1159C111.586 40.6479 112.083 40.9408 112.818 41.1015ZM115.971 44.7331C115.918 44.1653 115.418 43.9046 114.7 43.7261L114.911 45.9579C115.703 45.7008 116.018 45.2473 115.971 44.7331Z" fill="#1A1A1A"/>
</g>
</svg>
