<svg width="24" height="24" viewBox="0 0 24 24" xmlns="http://www.w3.org/2000/svg">
<path d="M11.8125 13.9219C12.5 14.1094 13.0625 14.2969 13.5 14.4844C13.9688 14.6719 14.4531 14.9375 14.9531 15.2812C15.4531 15.5938 15.8281 16 16.0781 16.5C16.3594 17 16.5 17.5938 16.5 18.2812C16.5 19.25 16.1719 20.0469 15.5156 20.6719C14.8906 21.2656 14.0469 21.6562 12.9844 21.8438V24H9.98438V21.8438C8.95312 21.625 8.09375 21.1875 7.40625 20.5312C6.75 19.875 6.39062 19.0312 6.32812 18H8.53125C8.65625 19.4062 9.64062 20.1094 11.4844 20.1094C12.4531 20.1094 13.1406 19.9375 13.5469 19.5938C13.9844 19.2188 14.2031 18.7969 14.2031 18.3281C14.2031 17.2031 13.2031 16.3906 11.2031 15.8906C8.07812 15.1719 6.51562 13.7969 6.51562 11.7656C6.51562 10.8594 6.84375 10.0938 7.5 9.46875C8.15625 8.8125 8.98438 8.375 9.98438 8.15625V6H12.9844V8.20312C14.0156 8.45312 14.7969 8.92188 15.3281 9.60938C15.8906 10.2969 16.1875 11.0938 16.2188 12H14.0156C13.9531 10.5938 13.1094 9.89062 11.4844 9.89062C10.6719 9.89062 10.0156 10.0625 9.51562 10.4062C9.04688 10.75 8.8125 11.2031 8.8125 11.7656C8.8125 12.6719 9.8125 13.3906 11.8125 13.9219Z" />
</svg>
