<svg width="24" height="24" viewBox="0 0 24 24" xmlns="http://www.w3.org/2000/svg">
<path d="M10.5938 19.4062C11 19.8125 11.4688 20.0156 12 20.0156C12.5312 20.0156 13 19.8125 13.4062 19.4062C13.8125 19 14.0156 18.5312 14.0156 18C14.0156 17.4688 13.8125 17 13.4062 16.5938C13 16.1875 12.5312 15.9844 12 15.9844C11.4688 15.9844 11 16.1875 10.5938 16.5938C10.1875 17 9.98438 17.4688 9.98438 18C9.98438 18.5312 10.1875 19 10.5938 19.4062ZM9 12H15L12 7.59375L9 12ZM17.2031 12H21.9844C22.2656 12 22.5 12.0938 22.6875 12.2812C22.9062 12.4688 23.0156 12.7031 23.0156 12.9844C22.7031 14.2344 22.2344 16 21.6094 18.2812C20.9844 20.5312 20.5938 21.9531 20.4375 22.5469C20.1562 23.5156 19.5156 24 18.5156 24H5.48438C4.48438 24 3.84375 23.5156 3.5625 22.5469L1.03125 13.2656C1 13.2031 0.984375 13.1094 0.984375 12.9844C0.984375 12.7031 1.07812 12.4688 1.26562 12.2812C1.48438 12.0938 1.73438 12 2.01562 12H6.79688L11.1562 5.4375C11.3438 5.15625 11.625 5.01562 12 5.01562C12.4062 5.01562 12.6875 5.15625 12.8438 5.4375L17.2031 12Z" />
</svg>
