<svg width="226" height="171" viewBox="0 0 226 171" fill="none" xmlns="http://www.w3.org/2000/svg">
<path d="M112.988 171C161.384 171 200.616 168.709 200.616 165.884C200.616 163.058 161.384 160.768 112.988 160.768C64.5916 160.768 25.3589 163.058 25.3589 165.884C25.3589 168.709 64.5916 171 112.988 171Z" fill="#F5F5F5"/>
<path d="M167.243 31.6205C173.558 30.9724 178.541 29.1266 178.374 27.4978C178.206 25.8689 172.952 25.0738 166.638 25.7219C160.324 26.37 155.34 28.2158 155.508 29.8446C155.675 31.4735 160.929 32.2686 167.243 31.6205Z" fill="#FF9769"/>
<path opacity="0.35" d="M172.193 26.1544C172.234 26.1544 173.264 26.2087 173.097 26.5024C172.93 26.7962 172.067 26.7194 172.067 26.7194L172.193 26.1544Z" fill="black"/>
<path opacity="0.35" d="M160.953 27.2933C160.953 27.2933 160.085 27.4425 160.271 27.9667C160.456 28.491 162.282 28.2379 162.282 28.2379L161.83 27.5374L160.953 27.2933Z" fill="black"/>
<path d="M147.788 68.733L141.339 62.5638C141.334 61.7775 141.051 61.0183 140.539 60.4216C139.698 59.5177 135.942 58.2342 135.698 58.5279C135.454 58.8217 135.106 62.4554 135.526 62.8079C135.947 63.1604 139.739 64.7061 139.739 64.7061L144.769 71.3181L147.788 68.733Z" fill="#E4897B"/>
<path d="M159.95 43.5183L157.464 44.9329C154.685 49.8185 148.497 60.6111 146.617 63.9148C146.548 64.0365 146.453 64.1417 146.339 64.2231C146.226 64.3046 146.095 64.3603 145.958 64.3865C145.82 64.4127 145.679 64.4088 145.543 64.3749C145.407 64.3411 145.28 64.2782 145.171 64.1905L143.625 62.9657L140.172 67.7474C140.172 67.7474 145.302 73.0894 147.056 72.5606C150.418 71.5347 159.186 56.7017 159.186 56.7017L159.95 43.5183Z" fill="#FF9769"/>
<path opacity="0.4" d="M155.552 51.8841C155.552 51.8841 152.389 62.2292 152.497 67.1465C154.269 64.6472 156.031 61.8677 157.301 59.7977L155.552 51.8841Z" fill="black"/>
<path d="M157.758 159.918L153.984 160.316L151.91 140.986L157.758 140.389V159.918Z" fill="#E4897B"/>
<path opacity="0.2" d="M152.14 143.137C153.577 143.083 155.995 142.961 157.758 142.871V140.389L151.91 140.986L152.14 143.137Z" fill="#263238"/>
<path d="M176.573 159.643H172.921L170.123 138.609L175.809 137.89L176.573 159.643Z" fill="#E4897B"/>
<path opacity="0.2" d="M170.299 139.928L170.661 142.658L175.958 142.139L175.809 137.89L170.553 138.555L170.299 139.928Z" fill="#263238"/>
<path d="M178.127 45.1049C177.055 49.0455 176.28 53.0611 175.809 57.1177C175.66 58.3606 175.533 59.5854 175.429 60.7695C175.294 62.2745 175.203 63.7252 175.126 65.1037C175.036 66.8437 175.009 68.9046 175.013 70.9338C175.013 75.5889 175.208 80.0677 175.208 80.0677C171.488 80.9717 160.745 80.3796 154.87 79.9502C154.178 74.3364 153.997 68.6713 154.328 63.0247C154.522 59.2907 154.931 55.571 155.552 51.8841C155.868 49.9185 156.306 47.9744 156.863 46.063C157.078 45.3849 157.483 44.7829 158.03 44.3286C158.578 43.8742 159.244 43.5868 159.95 43.5004C160.659 43.4146 161.482 43.3242 162.35 43.2745C162.684 43.2745 163.019 43.2428 163.358 43.2338C166.131 43.2683 168.9 43.4614 171.651 43.8123C172.171 43.871 172.699 43.9524 173.215 44.0337C174.87 44.3045 176.51 44.6621 178.127 45.1049Z" fill="#FF9769"/>
<path d="M161.007 27.3161C161.007 27.3161 160.167 31.7588 162.838 33.6977C165.509 35.6365 165.513 26.2585 165.513 26.2585L161.007 27.3161Z" fill="#F5F5F5"/>
<path d="M161.007 27.3161C161.007 27.3161 160.167 31.7588 162.838 33.6977C165.509 35.6365 165.513 26.2585 165.513 26.2585L161.007 27.3161Z" fill="#263238"/>
<path d="M171.655 43.8077C169.875 45.4257 165.513 44.8246 165.513 44.8246C165.513 44.8246 162.802 44.0834 163.362 43.2292C164.966 42.9671 165.744 42.2168 166.074 41.2587C166.248 40.6653 166.303 40.0432 166.236 39.4283C166.209 39.0893 166.16 38.7458 166.101 38.4069L171.493 34.4116C170.779 37.0465 169.933 41.8959 171.655 43.8077Z" fill="#E4897B"/>
<path opacity="0.2" d="M170.236 36.9695C170.024 40.2055 167.366 41.0959 166.065 41.2766C166.239 40.6832 166.294 40.0611 166.227 39.4462L170.236 36.9695Z" fill="black"/>
<path d="M170.598 37.6974C170.039 38.5276 169.222 39.1508 168.274 39.471C167.326 39.7912 166.298 39.7905 165.351 39.4691C164.117 39.0793 163.078 38.2341 162.445 37.1054C162.357 36.9483 162.277 36.7869 162.205 36.6218C160.89 33.544 160.47 28.1613 163.724 26.1411C164.441 25.6965 165.26 25.4419 166.103 25.4012C166.946 25.3606 167.785 25.5352 168.542 25.9087C169.299 26.2821 169.948 26.8421 170.429 27.5359C170.91 28.2296 171.206 29.0343 171.289 29.8742C171.692 33.4717 172.098 35.5687 170.598 37.6974Z" fill="#E4897B"/>
<path d="M166.77 27.5376C166.971 27.4086 167.208 27.3461 167.447 27.3589C167.686 27.3716 167.915 27.459 168.102 27.6087C168.288 27.7585 168.423 27.963 168.488 28.1934C168.552 28.4239 168.542 28.6688 168.46 28.8935C168.112 30.29 168.912 34.9677 170.489 32.9611C170.489 32.9611 170.449 32.378 170.941 32.4549C171.434 32.5317 171.678 35.5553 170.901 37.1054C170.901 37.1054 172.18 35.6321 172.604 32.378C173.029 29.124 172.763 26.5298 171.872 25.6395C170.982 24.7491 170.747 25.6756 170.087 24.4373C169.427 23.1989 164.067 23.0814 161.206 26.3264C160.677 26.9185 160.388 30.7194 166.77 27.5376Z" fill="#263238"/>
<path d="M166.047 31.7992C166.119 32.084 165.983 32.3506 165.794 32.3822C165.604 32.4139 165.409 32.2015 165.342 31.9303C165.274 31.6591 165.405 31.3789 165.595 31.3473C165.784 31.3156 165.997 31.5055 166.047 31.7992Z" fill="#263238"/>
<path d="M162.761 32.3597C162.833 32.6445 162.698 32.9111 162.508 32.9427C162.318 32.9744 162.124 32.762 162.056 32.4908C161.988 32.2196 162.124 31.9394 162.309 31.9078C162.494 31.8761 162.702 32.084 162.761 32.3597Z" fill="#263238"/>
<path d="M163.728 31.8851C163.533 32.8294 163.207 33.742 162.761 34.5968C163.213 34.8182 163.819 35.0487 164.28 34.8544L163.728 31.8851Z" fill="#DE5753"/>
<path opacity="0.35" d="M171.868 25.6393C171.212 24.9839 170.914 25.3093 170.539 25.0382L167.47 25.9421C167.502 25.9421 170.864 25.8336 172.708 27.9487C172.573 26.8821 172.293 26.0641 171.868 25.6393Z" fill="black"/>
<path d="M173.35 32.5362C173.092 33.411 172.497 34.1474 171.696 34.5836C170.634 35.153 169.839 34.2672 169.911 33.1238C169.983 32.1069 170.616 30.5567 171.795 30.4663C172.975 30.3759 173.653 31.4561 173.35 32.5362Z" fill="#E4897B"/>
<path d="M141.28 46.6504L137.28 46.2075L136.634 43.2924L142.545 43.9522L141.28 46.6504Z" fill="black"/>
<path d="M132.268 108.916H132.223C132.019 108.893 131.832 108.79 131.703 108.63C131.574 108.47 131.514 108.266 131.536 108.062L139.002 40.9876L140.588 41.1639L133.122 108.233C133.098 108.437 132.995 108.622 132.835 108.75C132.675 108.878 132.471 108.937 132.268 108.916V108.916Z" fill="#263238"/>
<path d="M151.123 29.544C149.871 31.5172 148.955 33.6843 148.412 35.9572L147.381 40.314C147.289 40.7218 147.054 41.0831 146.718 41.3319C146.382 41.5808 145.968 41.7007 145.551 41.6699V41.6699L142.062 41.2812C140.403 41.0959 140.656 39.7446 140.656 39.7446L143.454 28.03L143.002 28.7576C141.749 30.7321 140.833 32.9008 140.29 35.1753L139.201 39.853C139.07 40.2327 138.645 40.9151 137.248 40.7569L135.043 40.5129H134.998C134.821 40.486 134.652 40.4227 134.502 40.3269C134.351 40.2312 134.222 40.105 134.123 39.9566C134.024 39.8082 133.957 39.6407 133.926 39.4649C133.895 39.2891 133.902 39.1088 133.945 38.9356L136.756 27.1848L136.304 27.908C135.051 29.8824 134.135 32.0511 133.592 34.3257L132.236 40.0926V40.1739C132.113 41.3482 132.456 42.5239 133.193 43.4467C133.93 44.3694 135 44.9651 136.173 45.1047L143.49 45.9182C144.662 46.0483 145.838 45.7107 146.763 44.9787C147.688 44.2468 148.287 43.1796 148.43 42.0088L151.593 28.8164L151.123 29.544Z" fill="#FF9769"/>
<path opacity="0.5" d="M151.123 29.544C149.871 31.5172 148.955 33.6843 148.412 35.9572L147.381 40.314C147.289 40.7218 147.054 41.0831 146.718 41.3319C146.382 41.5808 145.968 41.7007 145.551 41.6699V41.6699L142.062 41.2812C140.403 41.0959 140.656 39.7446 140.656 39.7446L143.454 28.03L143.002 28.7576C141.749 30.7321 140.833 32.9008 140.29 35.1753L139.201 39.853C139.07 40.2327 138.645 40.9151 137.248 40.7569L135.043 40.5129H134.998C134.821 40.486 134.652 40.4227 134.502 40.3269C134.351 40.2312 134.222 40.105 134.123 39.9566C134.024 39.8082 133.957 39.6407 133.926 39.4649C133.895 39.2891 133.902 39.1088 133.945 38.9356L136.756 27.1848L136.304 27.908C135.051 29.8824 134.135 32.0511 133.592 34.3257L132.236 40.0926V40.1739C132.113 41.3482 132.456 42.5239 133.193 43.4467C133.93 44.3694 135 44.9651 136.173 45.1047L143.49 45.9182C144.662 46.0483 145.838 45.7107 146.763 44.9787C147.688 44.2468 148.287 43.1796 148.43 42.0088L151.593 28.8164L151.123 29.544Z" fill="white"/>
<path d="M168.948 139.698L176.88 138.722C176.491 131.803 176.066 124.151 175.782 119.062C175.09 106.661 174.792 79.4757 174.769 76.9267H155.372C153.794 85.5499 149.338 112.897 150.685 140.512L158.562 140.06C158.874 126.334 159.972 105.748 163.651 95.8544C164.32 104.197 165.111 113.069 165.798 117.792C166.607 123.351 167.863 132.105 168.948 139.698Z" fill="#FF9769"/>
<path opacity="0.3" d="M168.948 139.698L176.88 138.722C176.491 131.802 176.066 124.151 175.782 119.062C175.208 108.762 174.905 88.2614 174.805 80.1534C174.941 80.1263 175.077 80.0992 175.199 80.0675C175.199 80.0675 175.013 75.5887 175.004 70.9336C175.004 68.9043 175.004 66.8434 175.117 65.1034C175.194 63.725 175.285 62.2742 175.42 60.7692C175.524 59.5851 175.651 58.3603 175.8 57.1175C176.274 53.0606 177.052 49.0451 178.127 45.1046C176.549 44.6829 174.95 44.3435 173.337 44.0877C170.403 47.3779 168.84 56.0373 168.84 56.0373C166.065 56.078 158.269 55.2238 158.269 55.2238C158.942 46.6729 160.813 43.925 161.288 43.3872C160.813 43.4324 160.361 43.4821 159.932 43.5318C159.226 43.6182 158.559 43.9056 158.012 44.36C157.465 44.8143 157.06 45.4163 156.845 46.0944C156.288 48.0058 155.85 49.9499 155.534 51.9155C154.91 55.5963 154.498 59.3099 154.3 63.038C153.971 68.6604 154.149 74.301 154.834 79.8913C152.981 90.7381 149.446 115.532 150.662 140.525L158.544 140.073C158.856 126.347 159.954 105.761 163.633 95.8677C164.302 104.211 165.093 113.082 165.78 117.805C166.607 123.351 167.863 132.105 168.948 139.698Z" fill="black"/>
<path opacity="0.35" d="M175.492 112.445C175.339 108.215 175.217 103.375 175.113 98.6564L172.446 97.1333C172.446 97.1333 172.989 110.109 175.492 112.445Z" fill="black"/>
<path d="M150.54 141.926L159.349 141.284L159.263 138.853L150.111 139.364L150.54 141.926Z" fill="#FF9769"/>
<path d="M168.704 141.072L177.354 140.512L177.205 137.89L168.406 138.564L168.704 141.072Z" fill="#FF9769"/>
<path d="M160.641 162.327L159.421 158.382L159.349 146.536L151.268 147.033L152.795 158.901C151.76 159.99 149.23 161.256 145.813 162.295C145.054 162.53 145.451 164.383 147.345 164.23C149.239 164.076 153.369 163.593 154.743 163.48C156.967 163.299 158.269 163.299 160.045 163.186C160.094 163.181 160.142 163.172 160.189 163.159C160.274 163.134 160.352 163.092 160.421 163.037C160.489 162.982 160.546 162.914 160.588 162.836C160.63 162.759 160.656 162.675 160.665 162.587C160.674 162.5 160.666 162.411 160.641 162.327V162.327Z" fill="#263238"/>
<path d="M150.432 146.536L159.891 145.849V148.976L150.807 149.388L150.432 146.536Z" fill="#263238"/>
<path d="M179.47 162.671L178.249 158.725L178.177 146.88L170.096 147.377L171.624 159.24C170.593 160.334 168.058 161.595 164.641 162.639C163.882 162.874 164.28 164.727 166.178 164.573C168.076 164.42 172.198 163.936 173.572 163.823C175.8 163.642 177.097 163.642 178.873 163.529C178.922 163.525 178.97 163.516 179.018 163.502C179.102 163.477 179.18 163.436 179.249 163.381C179.317 163.326 179.374 163.257 179.416 163.18C179.458 163.103 179.484 163.018 179.493 162.931C179.503 162.843 179.495 162.755 179.47 162.671V162.671Z" fill="#263238"/>
<path d="M169.26 146.879L178.719 146.192V149.32L169.635 149.731L169.26 146.879Z" fill="#263238"/>
<path d="M158.025 59.531L159.457 59.9106C161.654 60.4841 163.923 60.7248 166.191 60.6247L168.085 60.5388L166.81 66.0978C166.692 66.6842 166.362 67.2062 165.882 67.5633C165.402 67.9204 164.807 68.0874 164.212 68.0322L160.226 67.6616C159.624 67.6043 159.065 67.3249 158.658 66.8778C158.251 66.4308 158.025 65.8482 158.025 65.2436V59.531Z" fill="#FF9769"/>
<path opacity="0.2" d="M158.025 59.531L159.457 59.9106C161.654 60.4841 163.923 60.7248 166.191 60.6247L168.085 60.5388L166.81 66.0978C166.692 66.6842 166.362 67.2062 165.882 67.5633C165.402 67.9204 164.807 68.0874 164.212 68.0322L160.226 67.6616C159.624 67.6043 159.065 67.3249 158.658 66.8778C158.251 66.4308 158.025 65.8482 158.025 65.2436V59.531Z" fill="black"/>
<path d="M184.088 100.962L183.257 100.772C183.467 99.8495 183.572 98.9064 183.569 97.9606C183.569 93.6444 181.494 90.1373 178.945 90.1373C176.396 90.1373 174.326 93.6444 174.326 97.9832H173.472C173.472 93.2015 175.931 89.3057 178.945 89.3057C181.96 89.3057 184.418 93.2015 184.418 97.9832C184.42 98.9852 184.31 99.9842 184.088 100.962V100.962Z" fill="#263238"/>
<path d="M172.451 97.1197L174.869 109.774C174.869 110.317 176.871 110.76 179.343 110.76C181.815 110.76 183.817 110.308 183.817 109.774L186.235 97.1197H172.451Z" fill="#EBEBEB"/>
<path opacity="0.3" d="M172.451 97.1197L174.869 109.774C174.869 110.317 176.871 110.76 179.343 110.76C181.815 110.76 183.817 110.308 183.817 109.774L186.235 97.1197H172.451Z" fill="black"/>
<path d="M179.343 98.6339C183.15 98.6339 186.235 97.956 186.235 97.1198C186.235 96.2837 183.15 95.6058 179.343 95.6058C175.537 95.6058 172.451 96.2837 172.451 97.1198C172.451 97.956 175.537 98.6339 179.343 98.6339Z" fill="#FF9769"/>
<path opacity="0.6" d="M179.343 98.6339C183.15 98.6339 186.235 97.956 186.235 97.1198C186.235 96.2837 183.15 95.6058 179.343 95.6058C175.537 95.6058 172.451 96.2837 172.451 97.1198C172.451 97.956 175.537 98.6339 179.343 98.6339Z" fill="black"/>
<path opacity="0.35" d="M179.343 98.6338C182.506 98.6338 185.069 98.3323 185.069 97.9604C185.069 97.5885 182.506 97.287 179.343 97.287C176.181 97.287 173.617 97.5885 173.617 97.9604C173.617 98.3323 176.181 98.6338 179.343 98.6338Z" fill="black"/>
<path d="M183.655 101.73C184.251 101.73 184.735 101.246 184.735 100.65C184.735 100.053 184.251 99.5694 183.655 99.5694C183.058 99.5694 182.574 100.053 182.574 100.65C182.574 101.246 183.058 101.73 183.655 101.73Z" fill="#F5F5F5"/>
<path opacity="0.4" d="M182.832 98.4349C183.122 99.0434 183.296 99.7011 183.343 100.374L183.84 100.243L184.116 98.3987V98.2225C183.713 98.2948 183.289 98.3626 182.832 98.4349Z" fill="black"/>
<path d="M179.343 89.3146V90.1688C181.707 90.5122 183.569 93.8748 183.569 97.9604C183.57 98.7672 183.494 99.5722 183.343 100.365C183.321 100.473 183.343 100.586 183.402 100.678C183.462 100.771 183.556 100.837 183.664 100.862V100.862C183.775 100.882 183.889 100.859 183.984 100.799C184.08 100.739 184.149 100.645 184.179 100.537C184.339 99.6872 184.419 98.8247 184.418 97.9604C184.418 93.3912 182.177 89.64 179.343 89.3146Z" fill="#263238"/>
<path d="M176.482 78.748L176.966 87.091C176.465 87.6321 176.173 88.3339 176.143 89.0706C176.143 90.2366 177.897 93.5042 178.254 93.459C178.611 93.4138 181.169 91.145 181.101 90.6388C181.033 90.1326 179.429 86.6481 179.429 86.6481L180.188 78.9198L176.482 78.748Z" fill="#E4897B"/>
<path opacity="0.2" d="M163.651 95.8406C162.697 98.5717 161.971 101.377 161.482 104.229C160.94 96.8078 163.109 88.9393 163.109 88.9393L163.651 95.8406Z" fill="black"/>
<path d="M165.771 35.6139C165.504 35.4935 165.207 35.4559 164.919 35.5059C164.631 35.5558 164.364 35.691 164.153 35.8941C164.136 35.881 164.117 35.8689 164.099 35.8579C163.817 35.7595 163.511 35.7501 163.223 35.8309C162.935 35.9117 162.679 36.0789 162.49 36.3099C161.64 37.2138 161.364 36.7302 161.364 36.7302C161.364 36.7302 161.938 38.2668 163.489 37.2906C163.615 37.2093 163.728 37.1324 163.828 37.0601C163.968 36.9583 164.129 36.8885 164.299 36.8557C164.469 36.8229 164.645 36.8279 164.813 36.8703C164.979 36.9087 165.149 36.9269 165.319 36.9245C166.747 36.9245 167.19 35.4783 167.19 35.4783C167.19 35.4783 166.942 36.0658 165.771 35.6139Z" fill="#263238"/>
<path d="M166.49 26.2448C168.616 26.0043 170.763 26.0043 172.889 26.2448C172.338 23.1806 170.101 21.3954 166.874 21.3954C163.258 21.3954 159.882 23.7907 159.882 27.4108C159.882 27.4967 159.882 27.578 159.882 27.6594C162.019 26.9199 164.238 26.4449 166.49 26.2448V26.2448Z" fill="#FF9769"/>
<path d="M169.246 28.2876C169.165 28.3509 163.226 30.0954 161.758 28.5949C160.289 27.0944 166.729 26.9453 166.729 26.9453L168.645 27.0854L169.246 28.2876Z" fill="#263238"/>
<path d="M178.127 45.1048C178.127 45.1048 181.463 44.6528 181.341 66.9792C181.264 81.9342 181.734 81.8574 181.734 81.8574L174.81 82.1964C174.81 82.1964 170.236 45.141 178.127 45.1048Z" fill="#FF9769"/>
<path d="M173.816 80.0588L182.38 79.9684L182.439 82.1829L173.942 82.4134L173.816 80.0588Z" fill="#FF9769"/>
<path opacity="0.5" d="M173.816 80.0588L182.38 79.9684L182.439 82.1829L173.942 82.4134L173.816 80.0588Z" fill="#FAFAFA"/>
<path d="M143.268 61.7951L144.728 62.9295L140.276 68.7642L138.925 67.5439L143.268 61.7951Z" fill="#FF9769"/>
<path opacity="0.5" d="M143.268 61.7951L144.728 62.9295L140.276 68.7642L138.925 67.5439L143.268 61.7951Z" fill="#FAFAFA"/>
<path d="M164.962 30.6062C164.943 30.601 164.926 30.5922 164.911 30.5803C164.896 30.5683 164.884 30.5535 164.874 30.5367C164.865 30.5198 164.859 30.5013 164.857 30.4822C164.855 30.4631 164.857 30.4438 164.863 30.4254C164.923 30.2621 165.03 30.1198 165.169 30.0156C165.309 29.9114 165.475 29.8497 165.649 29.8379C165.835 29.7974 166.03 29.8121 166.208 29.8804C166.386 29.9486 166.541 30.0673 166.652 30.222C166.673 30.2551 166.68 30.2949 166.671 30.3329C166.663 30.3709 166.64 30.4041 166.607 30.4254C166.573 30.4455 166.533 30.4516 166.495 30.4423C166.457 30.4329 166.424 30.409 166.404 30.3757C166.321 30.2707 166.209 30.1916 166.083 30.1476C165.956 30.1036 165.82 30.0965 165.69 30.1271C165.572 30.1332 165.458 30.1725 165.361 30.2405C165.264 30.3084 165.189 30.4023 165.143 30.5113C165.131 30.5478 165.106 30.5783 165.072 30.5961C165.038 30.6139 164.999 30.6175 164.962 30.6062V30.6062Z" fill="#263238"/>
<path d="M161.134 31.0943H161.093C161.056 31.0828 161.024 31.0568 161.005 31.0221C160.987 30.9874 160.983 30.9467 160.994 30.909C161.054 30.7457 161.161 30.6034 161.3 30.4991C161.44 30.3949 161.606 30.3332 161.78 30.3214C161.967 30.2821 162.161 30.2974 162.339 30.3655C162.517 30.4337 162.671 30.5517 162.784 30.7056C162.794 30.7221 162.801 30.7405 162.804 30.7598C162.808 30.7791 162.807 30.7989 162.802 30.8179C162.798 30.8369 162.789 30.8548 162.777 30.8705C162.766 30.8861 162.751 30.8992 162.734 30.909C162.718 30.9194 162.7 30.9265 162.681 30.9296C162.662 30.9328 162.642 30.932 162.624 30.9273C162.605 30.9227 162.587 30.9142 162.572 30.9025C162.557 30.8908 162.544 30.8761 162.535 30.8592C162.451 30.7555 162.339 30.6776 162.213 30.6344C162.087 30.5912 161.951 30.5846 161.821 30.6152C161.703 30.6198 161.589 30.658 161.492 30.7253C161.395 30.7925 161.32 30.886 161.274 30.9948C161.264 31.0242 161.246 31.0497 161.22 31.0676C161.195 31.0855 161.165 31.0948 161.134 31.0943V31.0943Z" fill="#263238"/>
<path d="M54.9752 110.719C54.9752 114.19 49.936 120.382 46.465 120.382C42.994 120.382 42.3975 114.19 42.3975 110.719C42.3975 109.052 43.0598 107.453 44.2388 106.274C45.4177 105.095 47.0168 104.432 48.6841 104.432C50.3514 104.432 51.9504 105.095 53.1294 106.274C54.3084 107.453 54.9707 109.052 54.9707 110.719H54.9752Z" fill="#FF9769"/>
<path opacity="0.4" d="M54.9752 110.719C54.9752 114.19 49.936 120.382 46.465 120.382C42.994 120.382 42.3975 114.19 42.3975 110.719C42.3975 109.052 43.0598 107.453 44.2388 106.274C45.4177 105.095 47.0168 104.432 48.6841 104.432C50.3514 104.432 51.9504 105.095 53.1294 106.274C54.3084 107.453 54.9707 109.052 54.9707 110.719H54.9752Z" fill="#FAFAFA"/>
<path d="M51.8523 103.348C51.3981 103.595 51.0074 103.944 50.7109 104.367C50.4145 104.791 50.2204 105.277 50.1439 105.788C50.6126 106.007 51.1261 106.114 51.6432 106.099C52.1603 106.084 52.6668 105.948 53.1222 105.703C53.5776 105.457 53.9692 105.109 54.2659 104.685C54.5625 104.261 54.7559 103.774 54.8306 103.262C54.3613 103.045 53.8482 102.94 53.3314 102.955C52.8146 102.97 52.3083 103.104 51.8523 103.348V103.348Z" fill="#00A857"/>
<path opacity="0.2" d="M51.8523 103.348C51.3981 103.595 51.0074 103.944 50.7109 104.367C50.4145 104.791 50.2204 105.277 50.1439 105.788C50.6126 106.007 51.1261 106.114 51.6432 106.099C52.1603 106.084 52.6668 105.948 53.1222 105.703C53.5776 105.457 53.9692 105.109 54.2659 104.685C54.5625 104.261 54.7559 103.774 54.8306 103.262C54.3613 103.045 53.8482 102.94 53.3314 102.955C52.8146 102.97 52.3083 103.104 51.8523 103.348V103.348Z" fill="#FAFAFA"/>
<path d="M48.6254 104.911C48.7964 105.166 49.0243 105.377 49.291 105.528C49.5576 105.68 49.8558 105.767 50.162 105.784C50.2653 105.495 50.2997 105.186 50.2624 104.882C50.2251 104.578 50.1172 104.286 49.9472 104.031C49.7773 103.776 49.55 103.564 49.2836 103.413C49.0172 103.261 48.7191 103.174 48.4129 103.158C48.3098 103.446 48.2753 103.755 48.3122 104.06C48.3491 104.364 48.4563 104.656 48.6254 104.911V104.911Z" fill="#00A857"/>
<path opacity="0.2" d="M48.6254 104.911C48.7964 105.166 49.0243 105.377 49.291 105.528C49.5576 105.68 49.8558 105.767 50.162 105.784C50.2653 105.495 50.2997 105.186 50.2624 104.882C50.2251 104.578 50.1172 104.286 49.9472 104.031C49.7773 103.776 49.55 103.564 49.2836 103.413C49.0172 103.261 48.7191 103.174 48.4129 103.158C48.3098 103.446 48.2753 103.755 48.3122 104.06C48.3491 104.364 48.4563 104.656 48.6254 104.911V104.911Z" fill="#FAFAFA"/>
<path d="M79.3354 108.342C80.4653 111.627 77.7174 119.121 74.4317 120.251C71.146 121.38 68.5564 115.731 67.4446 112.436C66.9016 110.859 67.0072 109.132 67.7383 107.633C68.4693 106.134 69.7658 104.987 71.3426 104.444C72.9195 103.901 74.6474 104.006 76.1463 104.737C77.6453 105.468 78.7924 106.765 79.3354 108.342Z" fill="#FF9769"/>
<path opacity="0.4" d="M79.3354 108.342C80.4653 111.627 77.7174 119.121 74.4317 120.251C71.146 121.38 68.5564 115.731 67.4446 112.436C66.9016 110.859 67.0072 109.132 67.7383 107.633C68.4693 106.134 69.7658 104.987 71.3426 104.444C72.9195 103.901 74.6474 104.006 76.1463 104.737C77.6453 105.468 78.7924 106.765 79.3354 108.342Z" fill="#FAFAFA"/>
<path d="M73.9843 102.39C73.6337 102.77 73.3768 103.228 73.234 103.725C73.0913 104.222 73.0665 104.746 73.1617 105.255C73.6764 105.31 74.1968 105.243 74.6812 105.061C75.1657 104.879 75.6009 104.586 75.9521 104.206C76.3033 103.826 76.5609 103.369 76.7041 102.871C76.8474 102.374 76.8725 101.85 76.7773 101.341C76.2623 101.287 75.7418 101.354 75.257 101.536C74.7723 101.718 74.3365 102.01 73.9843 102.39Z" fill="#00A857"/>
<path opacity="0.2" d="M73.9843 102.39C73.6337 102.77 73.3768 103.228 73.234 103.725C73.0913 104.222 73.0665 104.746 73.1617 105.255C73.6764 105.31 74.1968 105.243 74.6812 105.061C75.1657 104.879 75.6009 104.586 75.9521 104.206C76.3033 103.826 76.5609 103.369 76.7041 102.871C76.8474 102.374 76.8725 101.85 76.7773 101.341C76.2623 101.287 75.7418 101.354 75.257 101.536C74.7723 101.718 74.3365 102.01 73.9843 102.39Z" fill="#FAFAFA"/>
<path d="M71.4398 104.916C71.6837 105.102 71.9676 105.228 72.269 105.284C72.5703 105.341 72.8807 105.326 73.1753 105.241C73.178 104.935 73.1093 104.633 72.9746 104.358C72.8399 104.083 72.6429 103.844 72.3993 103.659C72.1558 103.473 71.8723 103.348 71.5716 103.291C71.2708 103.235 70.9611 103.25 70.667 103.334C70.6633 103.64 70.7313 103.942 70.8655 104.217C70.9997 104.491 71.1964 104.731 71.4398 104.916V104.916Z" fill="#00A857"/>
<path opacity="0.2" d="M71.4398 104.916C71.6837 105.102 71.9676 105.228 72.269 105.284C72.5703 105.341 72.8807 105.326 73.1753 105.241C73.178 104.935 73.1093 104.633 72.9746 104.358C72.8399 104.083 72.6429 103.844 72.3993 103.659C72.1558 103.473 71.8723 103.348 71.5716 103.291C71.2708 103.235 70.9611 103.25 70.667 103.334C70.6633 103.64 70.7313 103.942 70.8655 104.217C70.9997 104.491 71.1964 104.731 71.4398 104.916V104.916Z" fill="#FAFAFA"/>
<path d="M54.7448 109.359C54.3832 113.426 59.6213 121.186 63.6843 121.561C67.7474 121.936 69.0806 114.75 69.4467 110.692C69.6217 108.742 69.0151 106.803 67.7602 105.301C67.1389 104.557 66.3772 103.942 65.5185 103.493C64.6598 103.044 63.7209 102.768 62.7556 102.681C61.7902 102.594 60.8173 102.699 59.8923 102.988C58.9672 103.277 58.1083 103.746 57.3644 104.367C55.8621 105.622 54.9198 107.422 54.7448 109.372V109.359Z" fill="#FF9769"/>
<path opacity="0.5" d="M54.7448 109.359C54.3832 113.426 59.6213 121.186 63.6843 121.561C67.7474 121.936 69.0806 114.75 69.4467 110.692C69.6217 108.742 69.0151 106.803 67.7602 105.301C67.1389 104.557 66.3772 103.942 65.5185 103.493C64.6598 103.044 63.7209 102.768 62.7556 102.681C61.7902 102.594 60.8173 102.699 59.8923 102.988C58.9672 103.277 58.1083 103.746 57.3644 104.367C55.8621 105.622 54.9198 107.422 54.7448 109.372V109.359Z" fill="#FAFAFA"/>
<path d="M59.1693 101.074C59.6746 101.41 60.0952 101.858 60.3979 102.383C60.7006 102.908 60.8772 103.497 60.9139 104.102C60.3433 104.309 59.7324 104.379 59.1298 104.308C58.5272 104.237 57.9496 104.026 57.443 103.691C56.9364 103.357 56.5149 102.91 56.212 102.384C55.9091 101.858 55.7332 101.269 55.6984 100.663C56.2691 100.457 56.8799 100.387 57.4824 100.459C58.0849 100.53 58.6625 100.741 59.1693 101.074V101.074Z" fill="#00A857"/>
<path opacity="0.2" d="M59.1693 101.074C59.6746 101.41 60.0952 101.858 60.3979 102.383C60.7006 102.908 60.8772 103.497 60.9139 104.102C60.3433 104.309 59.7324 104.379 59.1298 104.308C58.5272 104.237 57.9496 104.026 57.443 103.691C56.9364 103.357 56.5149 102.91 56.212 102.384C55.9091 101.858 55.7332 101.269 55.6984 100.663C56.2691 100.457 56.8799 100.387 57.4824 100.459C58.0849 100.53 58.6625 100.741 59.1693 101.074V101.074Z" fill="#FAFAFA"/>
<path d="M62.7759 103.239C62.5492 103.518 62.2611 103.74 61.9342 103.889C61.6073 104.038 61.2504 104.11 60.8913 104.098C60.8017 103.75 60.7946 103.385 60.8707 103.034C60.9468 102.682 61.1038 102.353 61.3295 102.073C61.5551 101.793 61.843 101.57 62.1702 101.421C62.4974 101.272 62.855 101.201 63.2143 101.214C63.3022 101.563 63.3083 101.927 63.2323 102.278C63.1563 102.629 63.0001 102.958 62.7759 103.239Z" fill="#00A857"/>
<path opacity="0.2" d="M62.7759 103.239C62.5492 103.518 62.2611 103.74 61.9342 103.889C61.6073 104.038 61.2504 104.11 60.8913 104.098C60.8017 103.75 60.7946 103.385 60.8707 103.034C60.9468 102.682 61.1038 102.353 61.3295 102.073C61.5551 101.793 61.843 101.57 62.1702 101.421C62.4974 101.272 62.855 101.201 63.2143 101.214C63.3022 101.563 63.3083 101.927 63.2323 102.278C63.1563 102.629 63.0001 102.958 62.7759 103.239Z" fill="#FAFAFA"/>
<path d="M79.0913 106.489C77.8078 110.357 81.1296 119.116 84.9983 120.4C88.867 121.683 91.8138 115.008 93.0973 111.139C93.714 109.281 93.5674 107.255 92.6897 105.505C91.8121 103.755 90.2752 102.425 88.4173 101.809C86.5594 101.192 84.5327 101.339 82.7828 102.216C81.033 103.094 79.7035 104.631 79.0868 106.489H79.0913Z" fill="#FF9769"/>
<path opacity="0.5" d="M79.0913 106.489C77.8078 110.357 81.1296 119.116 84.9983 120.4C88.867 121.683 91.8138 115.008 93.0973 111.139C93.714 109.281 93.5674 107.255 92.6897 105.505C91.8121 103.755 90.2752 102.425 88.4173 101.809C86.5594 101.192 84.5327 101.339 82.7828 102.216C81.033 103.094 79.7035 104.631 79.0868 106.489H79.0913Z" fill="#FAFAFA"/>
<path d="M85.2785 99.4381C85.6932 99.8799 85.9997 100.412 86.1738 100.992C86.3479 101.573 86.3849 102.185 86.2819 102.783C85.679 102.854 85.0678 102.783 84.4972 102.576C83.9265 102.369 83.4122 102.031 82.9954 101.59C82.5786 101.148 82.2709 100.616 82.0968 100.034C81.9227 99.4525 81.8871 98.8383 81.9929 98.2405C82.5959 98.1717 83.2067 98.2441 83.7769 98.4519C84.3471 98.6598 84.8612 98.9974 85.2785 99.4381V99.4381Z" fill="#00A857"/>
<path opacity="0.2" d="M85.2785 99.4381C85.6932 99.8799 85.9997 100.412 86.1738 100.992C86.3479 101.573 86.3849 102.185 86.2819 102.783C85.679 102.854 85.0678 102.783 84.4972 102.576C83.9265 102.369 83.4122 102.031 82.9954 101.59C82.5786 101.148 82.2709 100.616 82.0968 100.034C81.9227 99.4525 81.8871 98.8383 81.9929 98.2405C82.5959 98.1717 83.2067 98.2441 83.7769 98.4519C84.3471 98.6598 84.8612 98.9974 85.2785 99.4381V99.4381Z" fill="#FAFAFA"/>
<path d="M88.2931 102.367C88.0101 102.588 87.6792 102.741 87.3268 102.811C86.9744 102.882 86.6103 102.869 86.2638 102.774C86.2578 102.415 86.3355 102.06 86.4907 101.737C86.6459 101.414 86.8742 101.132 87.1576 100.913C87.4411 100.693 87.7717 100.543 88.1234 100.474C88.4751 100.404 88.838 100.418 89.1834 100.514C89.1882 100.871 89.1103 101.223 88.9558 101.545C88.8013 101.866 88.5745 102.148 88.2931 102.367Z" fill="#00A857"/>
<path opacity="0.2" d="M88.2931 102.367C88.0101 102.588 87.6792 102.741 87.3268 102.811C86.9744 102.882 86.6103 102.869 86.2638 102.774C86.2578 102.415 86.3355 102.06 86.4907 101.737C86.6459 101.414 86.8742 101.132 87.1576 100.913C87.4411 100.693 87.7717 100.543 88.1234 100.474C88.4751 100.404 88.838 100.418 89.1834 100.514C89.1882 100.871 89.1103 101.223 88.9558 101.545C88.8013 101.866 88.5745 102.148 88.2931 102.367Z" fill="#FAFAFA"/>
<path d="M32.6851 112.382H103.149C103.149 112.382 103.967 128.34 99.28 132.72C95.2983 136.453 64.647 139.874 52.5754 141.271C50.3156 141.533 42.9895 140.873 41.1637 139.26C36.5628 135.192 33.2184 127.084 32.6851 112.382Z" fill="#FF9769"/>
<g opacity="0.35">
<path opacity="0.35" d="M41.1636 139.269C42.9715 140.882 50.3202 141.528 52.5754 141.28C55.1741 140.982 58.6361 140.584 62.5183 140.114C74.0566 138.351 84.5328 136.232 86.8965 134.012C91.2443 129.945 91.5109 117.29 91.4431 112.382H32.6896C33.2184 127.084 36.5628 135.192 41.1636 139.269Z" fill="black"/>
</g>
<path d="M105.671 110.877H31.3021V113.734H105.671V110.877Z" fill="#FF9769"/>
<g opacity="0.4">
<path opacity="0.4" d="M105.671 110.877H31.3021V113.734H105.671V110.877Z" fill="#FAFAFA"/>
</g>
<path d="M52.4148 167.097C58.9513 166.036 63.39 159.877 62.329 153.341C61.268 146.804 55.109 142.366 48.5725 143.427C42.036 144.488 37.5973 150.647 38.6583 157.183C39.7193 163.72 45.8783 168.158 52.4148 167.097Z" fill="#2E353A"/>
<g opacity="0.35">
<path opacity="0.35" d="M102.846 122.203L99.1624 127.36C98.5212 128.255 98.0701 129.271 97.8369 130.347C97.6037 131.423 97.5934 132.535 97.8066 133.615V133.615C98.3383 133.391 98.8322 133.086 99.2709 132.711C101.404 130.741 102.394 126.379 102.846 122.203Z" fill="black"/>
</g>
<path d="M56.0916 155.263C56.0916 154.155 55.7629 153.071 55.1471 152.15C54.5313 151.228 53.6561 150.51 52.632 150.086C51.608 149.661 50.4812 149.55 49.3941 149.767C48.307 149.983 47.3084 150.517 46.5246 151.3C45.7409 152.084 45.2071 153.083 44.9909 154.17C44.7747 155.257 44.8856 156.384 45.3098 157.408C45.734 158.432 46.4523 159.307 47.3739 159.923C48.2955 160.539 49.379 160.867 50.4874 160.867C51.9737 160.867 53.3992 160.277 54.4502 159.226C55.5011 158.175 56.0916 156.75 56.0916 155.263V155.263Z" fill="#F0F0F0"/>
<path d="M53.0319 155.263C53.0319 154.76 52.8826 154.268 52.603 153.85C52.3235 153.431 51.9261 153.105 51.4611 152.912C50.9962 152.72 50.4846 152.669 49.991 152.768C49.4974 152.866 49.044 153.108 48.6882 153.464C48.3323 153.82 48.09 154.273 47.9918 154.767C47.8936 155.26 47.944 155.772 48.1366 156.237C48.3292 156.702 48.6553 157.099 49.0737 157.379C49.4922 157.658 49.9841 157.808 50.4874 157.808C51.1622 157.808 51.8094 157.54 52.2866 157.062C52.7638 156.585 53.0319 155.938 53.0319 155.263V155.263Z" fill="#263238"/>
<path d="M101.802 165.495C100.309 165.5 98.859 164.998 97.689 164.071C96.519 163.144 95.6984 161.847 95.3616 160.393L90.3042 137.303L59.7524 142.062L51.9156 156.072C51.8105 156.26 51.6696 156.425 51.5007 156.558C51.3319 156.691 51.1385 156.789 50.9316 156.848C50.7247 156.906 50.5084 156.923 50.2949 156.898C50.0814 156.873 49.875 156.805 49.6875 156.7C49.4999 156.595 49.3349 156.454 49.2018 156.286C49.0687 156.117 48.9702 155.923 48.9119 155.716C48.8536 155.51 48.8365 155.293 48.8618 155.08C48.8871 154.866 48.9542 154.66 49.0592 154.472L57.2802 139.77C57.4025 139.554 57.5721 139.368 57.7764 139.226C57.9806 139.085 58.2143 138.991 58.4598 138.952L91.3211 133.832C91.7324 133.768 92.1525 133.863 92.4959 134.098C92.8393 134.334 93.0802 134.691 93.1696 135.097L98.5704 159.683C98.6754 160.126 98.8707 160.543 99.144 160.908C99.4174 161.272 99.7629 161.576 100.159 161.801C100.555 162.026 100.993 162.166 101.446 162.214C101.899 162.262 102.357 162.216 102.792 162.079C103.583 161.837 104.255 161.306 104.674 160.592C105.092 159.878 105.227 159.032 105.051 158.223L99.3975 130.478C99.3263 130.131 99.3691 129.769 99.5195 129.448L106.525 114.705C106.634 114.476 106.794 114.276 106.993 114.119C107.192 113.962 107.425 113.853 107.673 113.801L134.55 108.238C134.966 108.174 135.39 108.271 135.736 108.511C136.082 108.751 136.322 109.115 136.407 109.526C136.492 109.938 136.416 110.367 136.194 110.725C135.972 111.082 135.622 111.34 135.215 111.447L109.132 116.843L102.715 130.37L108.242 157.555C108.445 158.514 108.432 159.506 108.203 160.459C107.973 161.413 107.534 162.303 106.917 163.065C106.3 163.826 105.52 164.441 104.635 164.863C103.75 165.285 102.782 165.504 101.802 165.504V165.495Z" fill="#FF9769"/>
<g opacity="0.7">
<path opacity="0.7" d="M101.802 165.495C100.309 165.5 98.859 164.998 97.689 164.071C96.519 163.144 95.6984 161.847 95.3616 160.393L90.3042 137.303L59.7524 142.062L51.9156 156.072C51.8105 156.26 51.6696 156.425 51.5007 156.558C51.3319 156.691 51.1385 156.789 50.9316 156.848C50.7247 156.906 50.5084 156.923 50.2949 156.898C50.0814 156.873 49.875 156.805 49.6875 156.7C49.4999 156.595 49.3349 156.454 49.2018 156.286C49.0687 156.117 48.9702 155.923 48.9119 155.716C48.8536 155.51 48.8365 155.293 48.8618 155.08C48.8871 154.866 48.9542 154.66 49.0592 154.472L57.2802 139.77C57.4025 139.554 57.5721 139.368 57.7764 139.226C57.9806 139.085 58.2143 138.991 58.4598 138.952L91.3211 133.832C91.7324 133.768 92.1525 133.863 92.4959 134.098C92.8393 134.334 93.0802 134.691 93.1696 135.097L98.5704 159.683C98.6754 160.126 98.8707 160.543 99.144 160.908C99.4174 161.272 99.7629 161.576 100.159 161.801C100.555 162.026 100.993 162.166 101.446 162.214C101.899 162.262 102.357 162.216 102.792 162.079C103.583 161.837 104.255 161.306 104.674 160.592C105.092 159.878 105.227 159.032 105.051 158.223L99.3975 130.478C99.3263 130.131 99.3691 129.769 99.5195 129.448L106.525 114.705C106.634 114.476 106.794 114.276 106.993 114.119C107.192 113.962 107.425 113.853 107.673 113.801L134.55 108.238C134.966 108.174 135.39 108.271 135.736 108.511C136.082 108.751 136.322 109.115 136.407 109.526C136.492 109.938 136.416 110.367 136.194 110.725C135.972 111.082 135.622 111.34 135.215 111.447L109.132 116.843L102.715 130.37L108.242 157.555C108.445 158.514 108.432 159.506 108.203 160.459C107.973 161.413 107.534 162.303 106.917 163.065C106.3 163.826 105.52 164.441 104.635 164.863C103.75 165.285 102.782 165.504 101.802 165.504V165.495Z" fill="white"/>
</g>
<path d="M126.171 108.712L138.451 106.213C139.184 106.089 139.936 106.255 140.549 106.676C141.162 107.097 141.587 107.74 141.735 108.469C141.883 109.197 141.742 109.955 141.342 110.581C140.941 111.208 140.313 111.654 139.589 111.826L127.314 114.325C127.125 114.362 126.171 108.712 126.171 108.712Z" fill="#FF9769"/>
<path d="M116.318 145.957C116.318 148.158 113.128 152.077 110.931 152.077C108.735 152.077 108.355 148.158 108.355 145.957C108.355 144.901 108.775 143.889 109.521 143.142C110.268 142.395 111.281 141.976 112.337 141.976C113.393 141.976 114.406 142.395 115.152 143.142C115.899 143.889 116.318 144.901 116.318 145.957V145.957Z" fill="#FF9769"/>
<path opacity="0.5" d="M116.318 145.957C116.318 148.158 113.128 152.077 110.931 152.077C108.735 152.077 108.355 148.158 108.355 145.957C108.355 144.901 108.775 143.889 109.521 143.142C110.268 142.395 111.281 141.976 112.337 141.976C113.393 141.976 114.406 142.395 115.152 143.142C115.899 143.889 116.318 144.901 116.318 145.957V145.957Z" fill="#FAFAFA"/>
<path d="M114.343 141.293C114.055 141.448 113.807 141.668 113.619 141.935C113.43 142.203 113.307 142.511 113.259 142.834C113.555 142.972 113.88 143.039 114.207 143.029C114.534 143.02 114.854 142.934 115.142 142.779C115.431 142.625 115.679 142.405 115.867 142.137C116.056 141.87 116.179 141.562 116.228 141.239C115.931 141.101 115.607 141.034 115.279 141.043C114.952 141.052 114.632 141.138 114.343 141.293V141.293Z" fill="#00A857"/>
<path opacity="0.2" d="M114.343 141.293C114.055 141.448 113.807 141.668 113.619 141.935C113.43 142.203 113.307 142.511 113.259 142.834C113.555 142.972 113.88 143.039 114.207 143.029C114.534 143.02 114.854 142.934 115.142 142.779C115.431 142.625 115.679 142.405 115.867 142.137C116.056 141.87 116.179 141.562 116.228 141.239C115.931 141.101 115.607 141.034 115.279 141.043C114.952 141.052 114.632 141.138 114.343 141.293V141.293Z" fill="#FAFAFA"/>
<path d="M112.301 142.274C112.408 142.434 112.552 142.568 112.72 142.663C112.887 142.759 113.075 142.814 113.268 142.825C113.334 142.643 113.356 142.447 113.333 142.254C113.309 142.061 113.241 141.877 113.133 141.715C113.026 141.553 112.882 141.419 112.713 141.323C112.544 141.227 112.355 141.172 112.161 141.162C112.096 141.346 112.075 141.542 112.1 141.735C112.124 141.928 112.193 142.112 112.301 142.274Z" fill="#00A857"/>
<path opacity="0.2" d="M112.301 142.274C112.408 142.434 112.552 142.568 112.72 142.663C112.887 142.759 113.075 142.814 113.268 142.825C113.334 142.643 113.356 142.447 113.333 142.254C113.309 142.061 113.241 141.877 113.133 141.715C113.026 141.553 112.882 141.419 112.713 141.323C112.544 141.227 112.355 141.172 112.161 141.162C112.096 141.346 112.075 141.542 112.1 141.735C112.124 141.928 112.193 142.112 112.301 142.274Z" fill="#FAFAFA"/>
<path d="M131.739 144.457C132.458 146.536 130.713 151.282 128.634 151.996C126.555 152.71 124.928 149.126 124.21 147.047C124.03 146.55 123.951 146.023 123.977 145.495C124.004 144.968 124.134 144.451 124.362 143.974C124.59 143.498 124.911 143.072 125.305 142.72C125.699 142.369 126.16 142.1 126.659 141.928C127.158 141.756 127.687 141.685 128.214 141.72C128.741 141.754 129.256 141.893 129.729 142.129C130.201 142.364 130.623 142.691 130.968 143.091C131.313 143.491 131.575 143.955 131.739 144.457V144.457Z" fill="#FF9769"/>
<path opacity="0.4" d="M131.739 144.457C132.458 146.536 130.713 151.282 128.634 151.996C126.555 152.71 124.928 149.126 124.21 147.047C124.03 146.55 123.951 146.023 123.977 145.495C124.004 144.968 124.134 144.451 124.362 143.974C124.59 143.498 124.911 143.072 125.305 142.72C125.699 142.369 126.16 142.1 126.659 141.928C127.158 141.756 127.687 141.685 128.214 141.72C128.741 141.754 129.256 141.893 129.729 142.129C130.201 142.364 130.623 142.691 130.968 143.091C131.313 143.491 131.575 143.955 131.739 144.457V144.457Z" fill="#FAFAFA"/>
<path d="M128.354 140.688C128.134 140.928 127.972 141.217 127.882 141.531C127.792 141.844 127.775 142.174 127.834 142.495C128.16 142.529 128.489 142.487 128.795 142.371C129.102 142.255 129.377 142.069 129.598 141.828C129.82 141.587 129.982 141.297 130.072 140.982C130.162 140.668 130.177 140.336 130.117 140.014C129.791 139.982 129.462 140.026 129.156 140.142C128.85 140.259 128.575 140.446 128.354 140.688V140.688Z" fill="#00A857"/>
<path opacity="0.2" d="M128.354 140.688C128.134 140.928 127.972 141.217 127.882 141.531C127.792 141.844 127.775 142.174 127.834 142.495C128.16 142.529 128.489 142.487 128.795 142.371C129.102 142.255 129.377 142.069 129.598 141.828C129.82 141.587 129.982 141.297 130.072 140.982C130.162 140.668 130.177 140.336 130.117 140.014C129.791 139.982 129.462 140.026 129.156 140.142C128.85 140.259 128.575 140.446 128.354 140.688V140.688Z" fill="#FAFAFA"/>
<path d="M126.74 142.274C126.847 142.275 126.952 142.249 127.045 142.199C127.138 142.148 127.217 142.074 127.274 141.984C127.331 141.894 127.364 141.791 127.37 141.685C127.376 141.579 127.355 141.473 127.308 141.378C127.262 141.282 127.191 141.2 127.104 141.139C127.017 141.078 126.916 141.041 126.81 141.03C126.704 141.019 126.597 141.036 126.5 141.078C126.402 141.12 126.317 141.187 126.252 141.271C126.25 141.465 126.293 141.656 126.377 141.83C126.462 142.005 126.587 142.157 126.74 142.274V142.274Z" fill="#FF9769"/>
<path opacity="0.2" d="M126.74 142.274C126.847 142.275 126.952 142.249 127.045 142.199C127.138 142.148 127.217 142.074 127.274 141.984C127.331 141.894 127.364 141.791 127.37 141.685C127.376 141.579 127.355 141.473 127.308 141.378C127.262 141.282 127.191 141.2 127.104 141.139C127.017 141.078 126.916 141.041 126.81 141.03C126.704 141.019 126.597 141.036 126.5 141.078C126.402 141.12 126.317 141.187 126.252 141.271C126.25 141.465 126.293 141.656 126.377 141.83C126.462 142.005 126.587 142.157 126.74 142.274V142.274Z" fill="#FAFAFA"/>
<path d="M116.174 145.099C115.943 147.67 119.261 152.583 121.832 152.814C124.404 153.044 125.249 148.502 125.48 145.935C125.552 145.315 125.499 144.687 125.324 144.088C125.15 143.489 124.857 142.931 124.463 142.447C124.07 141.963 123.583 141.563 123.032 141.269C122.481 140.976 121.877 140.797 121.256 140.741C120.634 140.685 120.008 140.754 119.414 140.944C118.819 141.135 118.269 141.442 117.796 141.848C117.322 142.254 116.934 142.751 116.656 143.309C116.377 143.868 116.213 144.476 116.174 145.099V145.099Z" fill="#FF9769"/>
<path opacity="0.5" d="M116.174 145.099C115.943 147.67 119.261 152.583 121.832 152.814C124.404 153.044 125.249 148.502 125.48 145.935C125.552 145.315 125.499 144.687 125.324 144.088C125.15 143.489 124.857 142.931 124.463 142.447C124.07 141.963 123.583 141.563 123.032 141.269C122.481 140.976 121.877 140.797 121.256 140.741C120.634 140.685 120.008 140.754 119.414 140.944C118.819 141.135 118.269 141.442 117.796 141.848C117.322 142.254 116.934 142.751 116.656 143.309C116.377 143.868 116.213 144.476 116.174 145.099V145.099Z" fill="#FAFAFA"/>
<path d="M118.971 139.852C119.292 140.063 119.559 140.346 119.75 140.679C119.942 141.012 120.053 141.385 120.074 141.768C119.713 141.899 119.327 141.944 118.946 141.899C118.565 141.854 118.199 141.72 117.879 141.509C117.558 141.298 117.292 141.015 117.1 140.682C116.908 140.35 116.797 139.977 116.775 139.594C117.136 139.462 117.522 139.417 117.904 139.462C118.285 139.507 118.651 139.64 118.971 139.852Z" fill="#00A857"/>
<path opacity="0.2" d="M118.971 139.852C119.292 140.063 119.559 140.346 119.75 140.679C119.942 141.012 120.053 141.385 120.074 141.768C119.713 141.899 119.327 141.944 118.946 141.899C118.565 141.854 118.199 141.72 117.879 141.509C117.558 141.298 117.292 141.015 117.1 140.682C116.908 140.35 116.797 139.977 116.775 139.594C117.136 139.462 117.522 139.417 117.904 139.462C118.285 139.507 118.651 139.64 118.971 139.852Z" fill="#FAFAFA"/>
<path d="M121.258 141.221C121.115 141.397 120.932 141.538 120.725 141.633C120.518 141.728 120.293 141.774 120.065 141.768C120.011 141.549 120.009 141.32 120.058 141.1C120.108 140.879 120.207 140.674 120.35 140.498C120.492 140.323 120.673 140.183 120.879 140.09C121.084 139.997 121.308 139.952 121.534 139.96C121.587 140.177 121.59 140.404 121.542 140.622C121.494 140.841 121.397 141.046 121.258 141.221V141.221Z" fill="#00A857"/>
<path opacity="0.2" d="M121.258 141.221C121.115 141.397 120.932 141.538 120.725 141.633C120.518 141.728 120.293 141.774 120.065 141.768C120.011 141.549 120.009 141.32 120.058 141.1C120.108 140.879 120.207 140.674 120.35 140.498C120.492 140.323 120.673 140.183 120.879 140.09C121.084 139.997 121.308 139.952 121.534 139.96C121.587 140.177 121.59 140.404 121.542 140.622C121.494 140.841 121.397 141.046 121.258 141.221V141.221Z" fill="#FAFAFA"/>
<path d="M131.576 143.282C130.763 145.732 132.869 151.277 135.314 152.091C137.759 152.904 139.63 148.674 140.444 146.215C140.657 145.628 140.75 145.004 140.718 144.38C140.686 143.756 140.53 143.145 140.257 142.583C139.985 142.02 139.603 141.518 139.133 141.106C138.663 140.694 138.116 140.381 137.523 140.184C136.93 139.987 136.304 139.911 135.681 139.961C135.058 140.011 134.452 140.184 133.897 140.472C133.343 140.76 132.852 141.157 132.453 141.638C132.054 142.119 131.756 142.675 131.576 143.273V143.282Z" fill="#FF9769"/>
<path opacity="0.5" d="M131.576 143.282C130.763 145.732 132.869 151.277 135.314 152.091C137.759 152.904 139.63 148.674 140.444 146.215C140.657 145.628 140.75 145.004 140.718 144.38C140.686 143.756 140.53 143.145 140.257 142.583C139.985 142.02 139.603 141.518 139.133 141.106C138.663 140.694 138.116 140.381 137.523 140.184C136.93 139.987 136.304 139.911 135.681 139.961C135.058 140.011 134.452 140.184 133.897 140.472C133.343 140.76 132.852 141.157 132.453 141.638C132.054 142.119 131.756 142.675 131.576 143.273V143.282Z" fill="#FAFAFA"/>
<path d="M135.504 138.817C135.767 139.097 135.961 139.434 136.071 139.802C136.181 140.17 136.203 140.558 136.137 140.936C135.755 140.98 135.368 140.934 135.008 140.802C134.647 140.671 134.322 140.456 134.059 140.177C133.796 139.897 133.601 139.56 133.491 139.192C133.381 138.824 133.358 138.436 133.425 138.058C133.806 138.015 134.193 138.061 134.553 138.193C134.914 138.325 135.239 138.538 135.504 138.817Z" fill="#00A857"/>
<path opacity="0.2" d="M135.504 138.817C135.767 139.097 135.961 139.434 136.071 139.802C136.181 140.17 136.203 140.558 136.137 140.936C135.755 140.98 135.368 140.934 135.008 140.802C134.647 140.671 134.322 140.456 134.059 140.177C133.796 139.897 133.601 139.56 133.491 139.192C133.381 138.824 133.358 138.436 133.425 138.058C133.806 138.015 134.193 138.061 134.553 138.193C134.914 138.325 135.239 138.538 135.504 138.817Z" fill="#FAFAFA"/>
<path d="M137.393 140.674C137.268 140.676 137.145 140.646 137.036 140.587C136.926 140.528 136.833 140.442 136.766 140.338C136.698 140.233 136.659 140.112 136.651 139.988C136.643 139.864 136.667 139.739 136.721 139.627C136.775 139.514 136.856 139.418 136.958 139.345C137.059 139.273 137.178 139.228 137.301 139.214C137.425 139.201 137.551 139.219 137.665 139.267C137.78 139.315 137.881 139.392 137.958 139.49C137.961 139.718 137.912 139.943 137.814 140.148C137.716 140.354 137.572 140.534 137.393 140.674V140.674Z" fill="#FF9769"/>
<path opacity="0.2" d="M137.393 140.674C137.268 140.676 137.145 140.646 137.036 140.587C136.926 140.528 136.833 140.442 136.766 140.338C136.698 140.233 136.659 140.112 136.651 139.988C136.643 139.864 136.667 139.739 136.721 139.627C136.775 139.514 136.856 139.418 136.958 139.345C137.059 139.273 137.178 139.228 137.301 139.214C137.425 139.201 137.551 139.219 137.665 139.267C137.78 139.315 137.881 139.392 137.958 139.49C137.961 139.718 137.912 139.943 137.814 140.148C137.716 140.354 137.572 140.534 137.393 140.674V140.674Z" fill="#FAFAFA"/>
<path d="M134.573 154.612H148.226L144.263 145.365H130.614L134.573 154.612Z" fill="#FF9769"/>
<path d="M144.249 145.365H119.559V165.784H144.249V145.365Z" fill="#FF9769"/>
<path opacity="0.3" d="M144.249 145.365H119.559V165.784H144.249V145.365Z" fill="#FAFAFA"/>
<path d="M125.647 145.365H106.511V165.784H125.647V145.365Z" fill="#FF9769"/>
<path opacity="0.1" d="M125.647 145.365H106.511V165.784H125.647V145.365Z" fill="#E0E0E0"/>
<path opacity="0.35" d="M106.511 155.575H122.334L125.642 145.365H106.511V155.575Z" fill="black"/>
<path d="M121.683 154.612H102.552L106.511 145.365H125.642L121.683 154.612Z" fill="#FF9769"/>
</svg>
